<mxfile host="Electron" agent="Mozilla/5.0 (Windows NT 10.0; Win64; x64) AppleWebKit/537.36 (KHTML, like Gecko) draw.io/24.7.17 Chrome/128.0.6613.36 Electron/32.0.1 Safari/537.36" version="24.7.17">
  <diagram name="‫עמוד-1‬" id="Y9QSZcqEfQQ1JahXuHJJ">
    <mxGraphModel dx="2876" dy="1194" grid="1" gridSize="10" guides="1" tooltips="1" connect="1" arrows="1" fold="1" page="1" pageScale="1" pageWidth="827" pageHeight="1169" math="0" shadow="0">
      <root>
        <mxCell id="0" />
        <mxCell id="1" parent="0" />
        <mxCell id="51Cz9Sj3qojeg60HBu6H-1" value="&lt;font style=&quot;&quot; size=&quot;1&quot;&gt;&lt;span style=&quot;font-size: 20px;&quot;&gt;2&lt;/span&gt;&lt;/font&gt;" style="ellipse;whiteSpace=wrap;html=1;aspect=fixed;fillColor=#086E67;strokeColor=#3039BF;gradientColor=#2626E0;fontStyle=1" parent="1" vertex="1">
          <mxGeometry x="120" y="560" width="80" height="80" as="geometry" />
        </mxCell>
        <mxCell id="51Cz9Sj3qojeg60HBu6H-4" value="&lt;span style=&quot;font-size: 20px; font-weight: 700;&quot;&gt;42&lt;/span&gt;" style="rhombus;whiteSpace=wrap;html=1;gradientColor=#2626E0;fillColor=#B300C7;strokeColor=#3039BF;" parent="1" vertex="1">
          <mxGeometry x="560" y="40" width="80" height="80" as="geometry" />
        </mxCell>
        <mxCell id="51Cz9Sj3qojeg60HBu6H-5" value="&lt;span style=&quot;font-size: 20px; font-weight: 700;&quot;&gt;46&lt;/span&gt;" style="whiteSpace=wrap;html=1;shape=mxgraph.basic.octagon2;align=center;verticalAlign=middle;dx=15;gradientColor=#2626E0;fillColor=#8AB305;strokeColor=#3039BF;" parent="1" vertex="1">
          <mxGeometry x="570" y="560" width="80" height="80" as="geometry" />
        </mxCell>
        <mxCell id="51Cz9Sj3qojeg60HBu6H-7" value="&lt;font style=&quot;&quot; size=&quot;1&quot;&gt;&lt;span style=&quot;font-size: 20px;&quot;&gt;5&lt;/span&gt;&lt;/font&gt;" style="ellipse;whiteSpace=wrap;html=1;aspect=fixed;fillColor=#086E67;strokeColor=#3039BF;gradientColor=#2626E0;fontStyle=1" parent="1" vertex="1">
          <mxGeometry x="120" y="440" width="80" height="80" as="geometry" />
        </mxCell>
        <mxCell id="51Cz9Sj3qojeg60HBu6H-8" value="&lt;font style=&quot;&quot; size=&quot;1&quot;&gt;&lt;span style=&quot;font-size: 20px;&quot;&gt;7&lt;/span&gt;&lt;/font&gt;" style="ellipse;whiteSpace=wrap;html=1;aspect=fixed;fillColor=#086E67;strokeColor=#3039BF;gradientColor=#2626E0;fontStyle=1" parent="1" vertex="1">
          <mxGeometry x="120" y="320" width="80" height="80" as="geometry" />
        </mxCell>
        <mxCell id="51Cz9Sj3qojeg60HBu6H-9" value="&lt;font style=&quot;&quot; size=&quot;1&quot;&gt;&lt;span style=&quot;font-size: 20px;&quot;&gt;9&lt;/span&gt;&lt;/font&gt;" style="ellipse;whiteSpace=wrap;html=1;aspect=fixed;fillColor=#086E67;strokeColor=#3039BF;gradientColor=#2626E0;fontStyle=1" parent="1" vertex="1">
          <mxGeometry x="160" y="200" width="80" height="80" as="geometry" />
        </mxCell>
        <mxCell id="51Cz9Sj3qojeg60HBu6H-10" value="&lt;font style=&quot;&quot; size=&quot;1&quot;&gt;&lt;span style=&quot;font-size: 20px;&quot;&gt;3&lt;/span&gt;&lt;/font&gt;" style="ellipse;whiteSpace=wrap;html=1;aspect=fixed;fillColor=#086E67;strokeColor=#3039BF;gradientColor=#2626E0;fontStyle=1" parent="1" vertex="1">
          <mxGeometry x="320" y="560" width="80" height="80" as="geometry" />
        </mxCell>
        <mxCell id="51Cz9Sj3qojeg60HBu6H-11" value="&lt;font style=&quot;&quot; size=&quot;1&quot;&gt;&lt;span style=&quot;font-size: 20px;&quot;&gt;6&lt;/span&gt;&lt;/font&gt;" style="ellipse;whiteSpace=wrap;html=1;aspect=fixed;fillColor=#086E67;strokeColor=#3039BF;gradientColor=#2626E0;fontStyle=1" parent="1" vertex="1">
          <mxGeometry x="320" y="440" width="80" height="80" as="geometry" />
        </mxCell>
        <mxCell id="51Cz9Sj3qojeg60HBu6H-12" value="&lt;font style=&quot;&quot; size=&quot;1&quot;&gt;&lt;span style=&quot;font-size: 20px;&quot;&gt;8&lt;/span&gt;&lt;/font&gt;" style="ellipse;whiteSpace=wrap;html=1;aspect=fixed;fillColor=#086E67;strokeColor=#3039BF;gradientColor=#2626E0;fontStyle=1" parent="1" vertex="1">
          <mxGeometry x="320" y="320" width="80" height="80" as="geometry" />
        </mxCell>
        <mxCell id="51Cz9Sj3qojeg60HBu6H-13" value="&lt;font style=&quot;&quot; size=&quot;1&quot;&gt;&lt;span style=&quot;font-size: 20px;&quot;&gt;10&lt;/span&gt;&lt;/font&gt;" style="ellipse;whiteSpace=wrap;html=1;aspect=fixed;fillColor=#086E67;strokeColor=#3039BF;gradientColor=#2626E0;fontStyle=1" parent="1" vertex="1">
          <mxGeometry x="320" y="200" width="80" height="80" as="geometry" />
        </mxCell>
        <mxCell id="51Cz9Sj3qojeg60HBu6H-14" value="&lt;font style=&quot;&quot; size=&quot;1&quot;&gt;&lt;span style=&quot;font-size: 20px;&quot;&gt;1&lt;/span&gt;&lt;/font&gt;" style="ellipse;whiteSpace=wrap;html=1;aspect=fixed;fillColor=#086E67;strokeColor=#3039BF;gradientColor=#2626E0;fontStyle=1" parent="1" vertex="1">
          <mxGeometry x="210" y="670" width="80" height="80" as="geometry" />
        </mxCell>
        <mxCell id="51Cz9Sj3qojeg60HBu6H-15" value="&lt;font style=&quot;&quot; size=&quot;1&quot;&gt;&lt;span style=&quot;font-size: 20px;&quot;&gt;0&lt;/span&gt;&lt;/font&gt;" style="ellipse;whiteSpace=wrap;html=1;aspect=fixed;fillColor=#086E67;strokeColor=#3039BF;gradientColor=#2626E0;fontStyle=1" parent="1" vertex="1">
          <mxGeometry x="180" y="780" width="80" height="80" as="geometry" />
        </mxCell>
        <mxCell id="51Cz9Sj3qojeg60HBu6H-17" value="&lt;span style=&quot;font-size: 20px; font-weight: 700;&quot;&gt;39&lt;/span&gt;" style="rhombus;whiteSpace=wrap;html=1;gradientColor=#2626E0;fillColor=#B300C7;strokeColor=#3039BF;" parent="1" vertex="1">
          <mxGeometry x="1100" y="660" width="80" height="80" as="geometry" />
        </mxCell>
        <mxCell id="51Cz9Sj3qojeg60HBu6H-19" value="&lt;font style=&quot;&quot; size=&quot;1&quot;&gt;&lt;span style=&quot;font-size: 20px;&quot;&gt;4&lt;/span&gt;&lt;/font&gt;" style="ellipse;whiteSpace=wrap;html=1;aspect=fixed;fillColor=#086E67;strokeColor=#3039BF;gradientColor=#2626E0;fontStyle=1" parent="1" vertex="1">
          <mxGeometry x="440" y="560" width="80" height="80" as="geometry" />
        </mxCell>
        <mxCell id="51Cz9Sj3qojeg60HBu6H-21" value="&lt;font style=&quot;&quot; size=&quot;1&quot;&gt;&lt;span style=&quot;font-size: 20px;&quot;&gt;26&lt;/span&gt;&lt;/font&gt;" style="ellipse;whiteSpace=wrap;html=1;aspect=fixed;fillColor=#086E67;strokeColor=#3039BF;gradientColor=#2626E0;fontStyle=1" parent="1" vertex="1">
          <mxGeometry x="560" y="160" width="80" height="80" as="geometry" />
        </mxCell>
        <mxCell id="51Cz9Sj3qojeg60HBu6H-22" value="&lt;font style=&quot;&quot; size=&quot;1&quot;&gt;&lt;span style=&quot;font-size: 20px;&quot;&gt;25&lt;/span&gt;&lt;/font&gt;" style="ellipse;whiteSpace=wrap;html=1;aspect=fixed;fillColor=#086E67;strokeColor=#3039BF;gradientColor=#2626E0;fontStyle=1" parent="1" vertex="1">
          <mxGeometry x="560" y="280" width="80" height="80" as="geometry" />
        </mxCell>
        <mxCell id="51Cz9Sj3qojeg60HBu6H-23" value="&lt;span style=&quot;font-size: 20px; font-weight: 700;&quot;&gt;49&lt;/span&gt;" style="whiteSpace=wrap;html=1;shape=mxgraph.basic.octagon2;align=center;verticalAlign=middle;dx=15;gradientColor=#2626E0;fillColor=#8AB305;strokeColor=#3039BF;" parent="1" vertex="1">
          <mxGeometry x="440" y="280" width="80" height="80" as="geometry" />
        </mxCell>
        <mxCell id="51Cz9Sj3qojeg60HBu6H-24" value="&lt;span style=&quot;font-size: 20px; font-weight: 700;&quot;&gt;50&lt;/span&gt;" style="whiteSpace=wrap;html=1;shape=mxgraph.basic.octagon2;align=center;verticalAlign=middle;dx=15;gradientColor=#2626E0;fillColor=#8AB305;strokeColor=#3039BF;" parent="1" vertex="1">
          <mxGeometry x="680" y="280" width="80" height="80" as="geometry" />
        </mxCell>
        <mxCell id="51Cz9Sj3qojeg60HBu6H-26" value="&lt;span style=&quot;font-size: 20px; font-weight: 700;&quot;&gt;47&lt;/span&gt;" style="whiteSpace=wrap;html=1;shape=mxgraph.basic.octagon2;align=center;verticalAlign=middle;dx=15;gradientColor=#2626E0;fillColor=#8AB305;strokeColor=#3039BF;" parent="1" vertex="1">
          <mxGeometry x="700" y="560" width="80" height="80" as="geometry" />
        </mxCell>
        <mxCell id="51Cz9Sj3qojeg60HBu6H-27" value="&lt;span style=&quot;font-size: 20px; font-weight: 700;&quot;&gt;43&lt;/span&gt;" style="whiteSpace=wrap;html=1;shape=mxgraph.basic.octagon2;align=center;verticalAlign=middle;dx=15;gradientColor=#2626E0;fillColor=#8AB305;strokeColor=#3039BF;" parent="1" vertex="1">
          <mxGeometry x="360" y="680" width="80" height="80" as="geometry" />
        </mxCell>
        <mxCell id="51Cz9Sj3qojeg60HBu6H-28" value="&lt;span style=&quot;font-size: 20px; font-weight: 700;&quot;&gt;44&lt;/span&gt;" style="whiteSpace=wrap;html=1;shape=mxgraph.basic.octagon2;align=center;verticalAlign=middle;dx=15;gradientColor=#2626E0;fillColor=#8AB305;strokeColor=#3039BF;" parent="1" vertex="1">
          <mxGeometry x="480" y="760" width="80" height="80" as="geometry" />
        </mxCell>
        <mxCell id="51Cz9Sj3qojeg60HBu6H-29" value="&lt;span style=&quot;font-size: 20px; font-weight: 700;&quot;&gt;45&lt;/span&gt;" style="whiteSpace=wrap;html=1;shape=mxgraph.basic.octagon2;align=center;verticalAlign=middle;dx=15;gradientColor=#2626E0;fillColor=#8AB305;strokeColor=#3039BF;" parent="1" vertex="1">
          <mxGeometry x="640" y="770" width="80" height="80" as="geometry" />
        </mxCell>
        <mxCell id="51Cz9Sj3qojeg60HBu6H-30" value="&lt;font style=&quot;&quot; size=&quot;1&quot;&gt;&lt;span style=&quot;font-size: 20px;&quot;&gt;15&lt;/span&gt;&lt;/font&gt;" style="ellipse;whiteSpace=wrap;html=1;aspect=fixed;fillColor=#086E67;strokeColor=#3039BF;gradientColor=#2626E0;fontStyle=1" parent="1" vertex="1">
          <mxGeometry x="840" y="560" width="80" height="80" as="geometry" />
        </mxCell>
        <mxCell id="51Cz9Sj3qojeg60HBu6H-31" value="&lt;font style=&quot;&quot; size=&quot;1&quot;&gt;&lt;span style=&quot;font-size: 20px;&quot;&gt;13&lt;/span&gt;&lt;/font&gt;" style="ellipse;whiteSpace=wrap;html=1;aspect=fixed;fillColor=#086E67;strokeColor=#3039BF;gradientColor=#2626E0;fontStyle=1" parent="1" vertex="1">
          <mxGeometry x="800" y="680" width="80" height="80" as="geometry" />
        </mxCell>
        <mxCell id="51Cz9Sj3qojeg60HBu6H-32" value="&lt;font style=&quot;&quot; size=&quot;1&quot;&gt;&lt;span style=&quot;font-size: 20px;&quot;&gt;11&lt;/span&gt;&lt;/font&gt;" style="ellipse;whiteSpace=wrap;html=1;aspect=fixed;fillColor=#086E67;strokeColor=#3039BF;gradientColor=#2626E0;fontStyle=1" parent="1" vertex="1">
          <mxGeometry x="810" y="800" width="80" height="80" as="geometry" />
        </mxCell>
        <mxCell id="51Cz9Sj3qojeg60HBu6H-33" value="&lt;span style=&quot;font-size: 20px; font-weight: 700;&quot;&gt;48&lt;/span&gt;" style="whiteSpace=wrap;html=1;shape=mxgraph.basic.octagon2;align=center;verticalAlign=middle;dx=15;gradientColor=#2626E0;fillColor=#8AB305;strokeColor=#3039BF;" parent="1" vertex="1">
          <mxGeometry x="880" y="440" width="80" height="80" as="geometry" />
        </mxCell>
        <mxCell id="51Cz9Sj3qojeg60HBu6H-34" value="&lt;font style=&quot;&quot; size=&quot;1&quot;&gt;&lt;span style=&quot;font-size: 20px;&quot;&gt;21&lt;/span&gt;&lt;/font&gt;" style="ellipse;whiteSpace=wrap;html=1;aspect=fixed;fillColor=#086E67;strokeColor=#3039BF;gradientColor=#2626E0;fontStyle=1" parent="1" vertex="1">
          <mxGeometry x="800" y="280" width="80" height="80" as="geometry" />
        </mxCell>
        <mxCell id="51Cz9Sj3qojeg60HBu6H-35" value="&lt;font style=&quot;&quot; size=&quot;1&quot;&gt;&lt;span style=&quot;font-size: 20px;&quot;&gt;20&lt;/span&gt;&lt;/font&gt;" style="ellipse;whiteSpace=wrap;html=1;aspect=fixed;fillColor=#086E67;strokeColor=#3039BF;gradientColor=#2626E0;fontStyle=1" parent="1" vertex="1">
          <mxGeometry x="920" y="320" width="80" height="80" as="geometry" />
        </mxCell>
        <mxCell id="51Cz9Sj3qojeg60HBu6H-36" value="&lt;font style=&quot;&quot; size=&quot;1&quot;&gt;&lt;span style=&quot;font-size: 20px;&quot;&gt;22&lt;/span&gt;&lt;/font&gt;" style="ellipse;whiteSpace=wrap;html=1;aspect=fixed;fillColor=#086E67;strokeColor=#3039BF;gradientColor=#2626E0;fontStyle=1" parent="1" vertex="1">
          <mxGeometry x="920" y="200" width="80" height="80" as="geometry" />
        </mxCell>
        <mxCell id="51Cz9Sj3qojeg60HBu6H-37" value="&lt;font style=&quot;&quot; size=&quot;1&quot;&gt;&lt;span style=&quot;font-size: 20px;&quot;&gt;24&lt;/span&gt;&lt;/font&gt;" style="ellipse;whiteSpace=wrap;html=1;aspect=fixed;fillColor=#086E67;strokeColor=#3039BF;gradientColor=#2626E0;fontStyle=1" parent="1" vertex="1">
          <mxGeometry x="800" y="120" width="80" height="80" as="geometry" />
        </mxCell>
        <mxCell id="51Cz9Sj3qojeg60HBu6H-38" value="&lt;font style=&quot;&quot; size=&quot;1&quot;&gt;&lt;span style=&quot;font-size: 20px;&quot;&gt;23&lt;/span&gt;&lt;/font&gt;" style="ellipse;whiteSpace=wrap;html=1;aspect=fixed;fillColor=#086E67;strokeColor=#3039BF;gradientColor=#2626E0;fontStyle=1" parent="1" vertex="1">
          <mxGeometry x="920" y="80" width="80" height="80" as="geometry" />
        </mxCell>
        <mxCell id="51Cz9Sj3qojeg60HBu6H-39" value="&lt;font style=&quot;&quot; size=&quot;1&quot;&gt;&lt;span style=&quot;font-size: 20px;&quot;&gt;12&lt;/span&gt;&lt;/font&gt;" style="ellipse;whiteSpace=wrap;html=1;aspect=fixed;fillColor=#086E67;strokeColor=#3039BF;gradientColor=#2626E0;fontStyle=1" parent="1" vertex="1">
          <mxGeometry x="980" y="810" width="80" height="80" as="geometry" />
        </mxCell>
        <mxCell id="51Cz9Sj3qojeg60HBu6H-40" value="&lt;font style=&quot;&quot; size=&quot;1&quot;&gt;&lt;span style=&quot;font-size: 20px;&quot;&gt;14&lt;/span&gt;&lt;/font&gt;" style="ellipse;whiteSpace=wrap;html=1;aspect=fixed;fillColor=#086E67;strokeColor=#3039BF;gradientColor=#2626E0;fontStyle=1" parent="1" vertex="1">
          <mxGeometry x="1000" y="690" width="80" height="80" as="geometry" />
        </mxCell>
        <mxCell id="51Cz9Sj3qojeg60HBu6H-41" value="&lt;font style=&quot;&quot; size=&quot;1&quot;&gt;&lt;span style=&quot;font-size: 20px;&quot;&gt;16&lt;/span&gt;&lt;/font&gt;" style="ellipse;whiteSpace=wrap;html=1;aspect=fixed;fillColor=#086E67;strokeColor=#3039BF;gradientColor=#2626E0;fontStyle=1" parent="1" vertex="1">
          <mxGeometry x="1000" y="560" width="80" height="80" as="geometry" />
        </mxCell>
        <mxCell id="51Cz9Sj3qojeg60HBu6H-42" value="&lt;font style=&quot;&quot; size=&quot;1&quot;&gt;&lt;span style=&quot;font-size: 20px;&quot;&gt;17&lt;/span&gt;&lt;/font&gt;" style="ellipse;whiteSpace=wrap;html=1;aspect=fixed;fillColor=#086E67;strokeColor=#3039BF;gradientColor=#2626E0;fontStyle=1" parent="1" vertex="1">
          <mxGeometry x="1130" y="560" width="80" height="80" as="geometry" />
        </mxCell>
        <mxCell id="51Cz9Sj3qojeg60HBu6H-43" value="&lt;font style=&quot;&quot; size=&quot;1&quot;&gt;&lt;span style=&quot;font-size: 20px;&quot;&gt;18&lt;/span&gt;&lt;/font&gt;" style="ellipse;whiteSpace=wrap;html=1;aspect=fixed;fillColor=#086E67;strokeColor=#3039BF;gradientColor=#2626E0;fontStyle=1" parent="1" vertex="1">
          <mxGeometry x="1200" y="680" width="80" height="80" as="geometry" />
        </mxCell>
        <mxCell id="51Cz9Sj3qojeg60HBu6H-44" value="&lt;font style=&quot;&quot; size=&quot;1&quot;&gt;&lt;span style=&quot;font-size: 20px;&quot;&gt;19&lt;/span&gt;&lt;/font&gt;" style="ellipse;whiteSpace=wrap;html=1;aspect=fixed;fillColor=#086E67;strokeColor=#3039BF;gradientColor=#2626E0;fontStyle=1" parent="1" vertex="1">
          <mxGeometry x="1201" y="800" width="80" height="80" as="geometry" />
        </mxCell>
        <mxCell id="51Cz9Sj3qojeg60HBu6H-45" value="&lt;span style=&quot;font-size: 20px; font-weight: 700;&quot;&gt;30&lt;/span&gt;" style="rhombus;whiteSpace=wrap;html=1;gradientColor=#2626E0;fillColor=#B300C7;strokeColor=#3039BF;" parent="1" vertex="1">
          <mxGeometry y="320" width="80" height="80" as="geometry" />
        </mxCell>
        <mxCell id="51Cz9Sj3qojeg60HBu6H-46" value="&lt;span style=&quot;font-size: 20px; font-weight: 700;&quot;&gt;31&lt;/span&gt;" style="rhombus;whiteSpace=wrap;html=1;gradientColor=#2626E0;fillColor=#B300C7;strokeColor=#3039BF;" parent="1" vertex="1">
          <mxGeometry x="-120" y="320" width="80" height="80" as="geometry" />
        </mxCell>
        <mxCell id="51Cz9Sj3qojeg60HBu6H-47" value="&lt;span style=&quot;font-size: 20px; font-weight: 700;&quot;&gt;32&lt;/span&gt;" style="rhombus;whiteSpace=wrap;html=1;gradientColor=#2626E0;fillColor=#B300C7;strokeColor=#3039BF;" parent="1" vertex="1">
          <mxGeometry y="440" width="80" height="80" as="geometry" />
        </mxCell>
        <mxCell id="51Cz9Sj3qojeg60HBu6H-48" value="&lt;span style=&quot;font-size: 20px; font-weight: 700;&quot;&gt;27&lt;/span&gt;" style="rhombus;whiteSpace=wrap;html=1;gradientColor=#2626E0;fillColor=#B300C7;strokeColor=#3039BF;" parent="1" vertex="1">
          <mxGeometry x="220" y="280" width="80" height="80" as="geometry" />
        </mxCell>
        <mxCell id="51Cz9Sj3qojeg60HBu6H-51" value="&lt;span style=&quot;font-size: 20px; font-weight: 700;&quot;&gt;28&lt;/span&gt;" style="rhombus;whiteSpace=wrap;html=1;gradientColor=#2626E0;fillColor=#B300C7;strokeColor=#3039BF;" parent="1" vertex="1">
          <mxGeometry x="220" y="390" width="80" height="80" as="geometry" />
        </mxCell>
        <mxCell id="51Cz9Sj3qojeg60HBu6H-52" value="&lt;span style=&quot;font-size: 20px; font-weight: 700;&quot;&gt;29&lt;/span&gt;" style="rhombus;whiteSpace=wrap;html=1;gradientColor=#2626E0;fillColor=#B300C7;strokeColor=#3039BF;" parent="1" vertex="1">
          <mxGeometry x="220" y="520" width="80" height="80" as="geometry" />
        </mxCell>
        <mxCell id="51Cz9Sj3qojeg60HBu6H-53" value="&lt;span style=&quot;font-size: 20px; font-weight: 700;&quot;&gt;35&lt;/span&gt;" style="rhombus;whiteSpace=wrap;html=1;gradientColor=#2626E0;fillColor=#B300C7;strokeColor=#3039BF;" parent="1" vertex="1">
          <mxGeometry x="280" y="760" width="80" height="80" as="geometry" />
        </mxCell>
        <mxCell id="51Cz9Sj3qojeg60HBu6H-54" value="&lt;span style=&quot;font-size: 20px; font-weight: 700;&quot;&gt;33&lt;/span&gt;" style="rhombus;whiteSpace=wrap;html=1;gradientColor=#2626E0;fillColor=#B300C7;strokeColor=#3039BF;" parent="1" vertex="1">
          <mxGeometry x="-120" y="440" width="80" height="80" as="geometry" />
        </mxCell>
        <mxCell id="51Cz9Sj3qojeg60HBu6H-55" value="&lt;span style=&quot;font-size: 20px; font-weight: 700;&quot;&gt;34&lt;/span&gt;" style="rhombus;whiteSpace=wrap;html=1;gradientColor=#2626E0;fillColor=#B300C7;strokeColor=#3039BF;" parent="1" vertex="1">
          <mxGeometry y="560" width="80" height="80" as="geometry" />
        </mxCell>
        <mxCell id="51Cz9Sj3qojeg60HBu6H-56" value="&lt;span style=&quot;font-size: 20px; font-weight: 700;&quot;&gt;41&lt;/span&gt;" style="rhombus;whiteSpace=wrap;html=1;gradientColor=#2626E0;fillColor=#B300C7;strokeColor=#3039BF;" parent="1" vertex="1">
          <mxGeometry x="1040" y="180" width="80" height="80" as="geometry" />
        </mxCell>
        <mxCell id="51Cz9Sj3qojeg60HBu6H-57" value="&lt;span style=&quot;font-size: 20px; font-weight: 700;&quot;&gt;40&lt;/span&gt;" style="rhombus;whiteSpace=wrap;html=1;gradientColor=#2626E0;fillColor=#B300C7;strokeColor=#3039BF;" parent="1" vertex="1">
          <mxGeometry x="1040" y="300" width="80" height="80" as="geometry" />
        </mxCell>
        <mxCell id="51Cz9Sj3qojeg60HBu6H-58" value="&lt;span style=&quot;font-size: 20px; font-weight: 700;&quot;&gt;36&lt;/span&gt;" style="rhombus;whiteSpace=wrap;html=1;gradientColor=#2626E0;fillColor=#B300C7;strokeColor=#3039BF;" parent="1" vertex="1">
          <mxGeometry x="910" y="630" width="80" height="80" as="geometry" />
        </mxCell>
        <mxCell id="51Cz9Sj3qojeg60HBu6H-59" value="&lt;span style=&quot;font-size: 20px; font-weight: 700;&quot;&gt;37&lt;/span&gt;" style="rhombus;whiteSpace=wrap;html=1;gradientColor=#2626E0;fillColor=#B300C7;strokeColor=#3039BF;" parent="1" vertex="1">
          <mxGeometry x="900" y="750" width="80" height="80" as="geometry" />
        </mxCell>
        <mxCell id="51Cz9Sj3qojeg60HBu6H-60" value="&lt;span style=&quot;font-size: 20px; font-weight: 700;&quot;&gt;38&lt;/span&gt;" style="rhombus;whiteSpace=wrap;html=1;gradientColor=#2626E0;fillColor=#B300C7;strokeColor=#3039BF;" parent="1" vertex="1">
          <mxGeometry x="900" y="880" width="80" height="80" as="geometry" />
        </mxCell>
        <mxCell id="51Cz9Sj3qojeg60HBu6H-62" value="" style="endArrow=none;html=1;rounded=0;entryX=0.5;entryY=1;entryDx=0;entryDy=0;strokeColor=#08612E;strokeWidth=6;exitX=0.5;exitY=0;exitDx=0;exitDy=0;exitPerimeter=0;" parent="1" source="51Cz9Sj3qojeg60HBu6H-33" target="51Cz9Sj3qojeg60HBu6H-35" edge="1">
          <mxGeometry width="50" height="50" relative="1" as="geometry">
            <mxPoint x="848" y="450" as="sourcePoint" />
            <mxPoint x="770" y="468" as="targetPoint" />
          </mxGeometry>
        </mxCell>
        <mxCell id="51Cz9Sj3qojeg60HBu6H-64" value="" style="endArrow=none;html=1;rounded=0;entryX=0;entryY=0.5;entryDx=0;entryDy=0;strokeColor=#08612E;strokeWidth=6;exitX=1;exitY=0.5;exitDx=0;exitDy=0;exitPerimeter=0;" parent="1" source="51Cz9Sj3qojeg60HBu6H-24" target="51Cz9Sj3qojeg60HBu6H-34" edge="1">
          <mxGeometry width="50" height="50" relative="1" as="geometry">
            <mxPoint x="930" y="450" as="sourcePoint" />
            <mxPoint x="970" y="410" as="targetPoint" />
          </mxGeometry>
        </mxCell>
        <mxCell id="51Cz9Sj3qojeg60HBu6H-65" value="" style="endArrow=none;html=1;rounded=0;entryX=0;entryY=0.5;entryDx=0;entryDy=0;strokeColor=#08612E;strokeWidth=6;exitX=1;exitY=0.5;exitDx=0;exitDy=0;entryPerimeter=0;" parent="1" source="51Cz9Sj3qojeg60HBu6H-22" target="51Cz9Sj3qojeg60HBu6H-24" edge="1">
          <mxGeometry width="50" height="50" relative="1" as="geometry">
            <mxPoint x="770" y="330" as="sourcePoint" />
            <mxPoint x="810" y="330" as="targetPoint" />
          </mxGeometry>
        </mxCell>
        <mxCell id="51Cz9Sj3qojeg60HBu6H-67" value="" style="endArrow=none;html=1;rounded=0;strokeColor=#08612E;strokeWidth=6;entryX=0;entryY=0.5;entryDx=0;entryDy=0;exitX=1;exitY=0.5;exitDx=0;exitDy=0;exitPerimeter=0;" parent="1" source="51Cz9Sj3qojeg60HBu6H-23" target="51Cz9Sj3qojeg60HBu6H-22" edge="1">
          <mxGeometry width="50" height="50" relative="1" as="geometry">
            <mxPoint x="395" y="160" as="sourcePoint" />
            <mxPoint x="520" y="90" as="targetPoint" />
          </mxGeometry>
        </mxCell>
        <mxCell id="51Cz9Sj3qojeg60HBu6H-68" value="" style="endArrow=none;html=1;rounded=0;strokeColor=#08612E;strokeWidth=6;entryX=1;entryY=0.5;entryDx=0;entryDy=0;exitX=0;exitY=0.5;exitDx=0;exitDy=0;exitPerimeter=0;" parent="1" source="51Cz9Sj3qojeg60HBu6H-23" target="51Cz9Sj3qojeg60HBu6H-12" edge="1">
          <mxGeometry width="50" height="50" relative="1" as="geometry">
            <mxPoint x="530" y="330" as="sourcePoint" />
            <mxPoint x="570" y="330" as="targetPoint" />
          </mxGeometry>
        </mxCell>
        <mxCell id="51Cz9Sj3qojeg60HBu6H-69" value="" style="endArrow=none;html=1;rounded=0;strokeColor=#08612E;strokeWidth=6;exitX=1;exitY=1;exitDx=0;exitDy=0;entryX=0;entryY=0.5;entryDx=0;entryDy=0;entryPerimeter=0;" parent="1" source="51Cz9Sj3qojeg60HBu6H-13" target="51Cz9Sj3qojeg60HBu6H-23" edge="1">
          <mxGeometry width="50" height="50" relative="1" as="geometry">
            <mxPoint x="375" y="130" as="sourcePoint" />
            <mxPoint x="500" y="60" as="targetPoint" />
          </mxGeometry>
        </mxCell>
        <mxCell id="51Cz9Sj3qojeg60HBu6H-70" value="" style="endArrow=none;html=1;rounded=0;strokeColor=#08612E;strokeWidth=6;exitX=1;exitY=0.5;exitDx=0;exitDy=0;entryX=0;entryY=0.5;entryDx=0;entryDy=0;" parent="1" source="51Cz9Sj3qojeg60HBu6H-9" target="51Cz9Sj3qojeg60HBu6H-13" edge="1">
          <mxGeometry width="50" height="50" relative="1" as="geometry">
            <mxPoint x="255" y="150" as="sourcePoint" />
            <mxPoint x="545" y="120" as="targetPoint" />
          </mxGeometry>
        </mxCell>
        <mxCell id="51Cz9Sj3qojeg60HBu6H-71" value="" style="endArrow=none;html=1;rounded=0;strokeColor=#08612E;strokeWidth=6;exitX=0;exitY=1;exitDx=0;exitDy=0;entryX=0.5;entryY=0;entryDx=0;entryDy=0;" parent="1" source="51Cz9Sj3qojeg60HBu6H-9" target="51Cz9Sj3qojeg60HBu6H-8" edge="1">
          <mxGeometry width="50" height="50" relative="1" as="geometry">
            <mxPoint x="210" y="90" as="sourcePoint" />
            <mxPoint x="500" y="60" as="targetPoint" />
          </mxGeometry>
        </mxCell>
        <mxCell id="51Cz9Sj3qojeg60HBu6H-72" value="" style="endArrow=none;html=1;rounded=0;strokeColor=#08612E;strokeWidth=6;exitX=1;exitY=1;exitDx=0;exitDy=0;entryX=0;entryY=0;entryDx=0;entryDy=0;" parent="1" source="51Cz9Sj3qojeg60HBu6H-9" target="51Cz9Sj3qojeg60HBu6H-48" edge="1">
          <mxGeometry width="50" height="50" relative="1" as="geometry">
            <mxPoint x="210" y="90" as="sourcePoint" />
            <mxPoint x="500" y="60" as="targetPoint" />
          </mxGeometry>
        </mxCell>
        <mxCell id="51Cz9Sj3qojeg60HBu6H-73" value="" style="endArrow=none;html=1;rounded=0;strokeColor=#08612E;strokeWidth=6;exitX=0;exitY=1;exitDx=0;exitDy=0;entryX=1;entryY=0;entryDx=0;entryDy=0;" parent="1" source="51Cz9Sj3qojeg60HBu6H-13" target="51Cz9Sj3qojeg60HBu6H-48" edge="1">
          <mxGeometry width="50" height="50" relative="1" as="geometry">
            <mxPoint x="210" y="90" as="sourcePoint" />
            <mxPoint x="500" y="60" as="targetPoint" />
          </mxGeometry>
        </mxCell>
        <mxCell id="51Cz9Sj3qojeg60HBu6H-74" value="" style="endArrow=none;html=1;rounded=0;strokeColor=#08612E;strokeWidth=6;exitX=0;exitY=1;exitDx=0;exitDy=0;entryX=1;entryY=0.5;entryDx=0;entryDy=0;" parent="1" source="51Cz9Sj3qojeg60HBu6H-48" target="51Cz9Sj3qojeg60HBu6H-8" edge="1">
          <mxGeometry width="50" height="50" relative="1" as="geometry">
            <mxPoint x="210" y="90" as="sourcePoint" />
            <mxPoint x="500" y="60" as="targetPoint" />
          </mxGeometry>
        </mxCell>
        <mxCell id="51Cz9Sj3qojeg60HBu6H-75" value="" style="endArrow=none;html=1;rounded=0;strokeColor=#08612E;strokeWidth=6;exitX=0;exitY=0.5;exitDx=0;exitDy=0;entryX=1;entryY=1;entryDx=0;entryDy=0;" parent="1" source="51Cz9Sj3qojeg60HBu6H-12" target="51Cz9Sj3qojeg60HBu6H-48" edge="1">
          <mxGeometry width="50" height="50" relative="1" as="geometry">
            <mxPoint x="250" y="350" as="sourcePoint" />
            <mxPoint x="210" y="370" as="targetPoint" />
          </mxGeometry>
        </mxCell>
        <mxCell id="51Cz9Sj3qojeg60HBu6H-76" value="" style="endArrow=none;html=1;rounded=0;strokeColor=#08612E;strokeWidth=6;exitX=0.5;exitY=1;exitDx=0;exitDy=0;" parent="1" source="51Cz9Sj3qojeg60HBu6H-48" target="51Cz9Sj3qojeg60HBu6H-51" edge="1">
          <mxGeometry width="50" height="50" relative="1" as="geometry">
            <mxPoint x="210" y="90" as="sourcePoint" />
            <mxPoint x="500" y="60" as="targetPoint" />
          </mxGeometry>
        </mxCell>
        <mxCell id="51Cz9Sj3qojeg60HBu6H-77" value="" style="endArrow=none;html=1;rounded=0;strokeColor=#08612E;strokeWidth=6;exitX=0.5;exitY=1;exitDx=0;exitDy=0;entryX=0.5;entryY=0;entryDx=0;entryDy=0;" parent="1" source="51Cz9Sj3qojeg60HBu6H-51" target="51Cz9Sj3qojeg60HBu6H-52" edge="1">
          <mxGeometry width="50" height="50" relative="1" as="geometry">
            <mxPoint x="270" y="370" as="sourcePoint" />
            <mxPoint x="270" y="410" as="targetPoint" />
          </mxGeometry>
        </mxCell>
        <mxCell id="51Cz9Sj3qojeg60HBu6H-78" value="" style="endArrow=none;html=1;rounded=0;strokeColor=#08612E;strokeWidth=6;exitX=1;exitY=1;exitDx=0;exitDy=0;entryX=0;entryY=0;entryDx=0;entryDy=0;" parent="1" source="51Cz9Sj3qojeg60HBu6H-7" target="51Cz9Sj3qojeg60HBu6H-52" edge="1">
          <mxGeometry width="50" height="50" relative="1" as="geometry">
            <mxPoint x="270" y="490" as="sourcePoint" />
            <mxPoint x="270" y="530" as="targetPoint" />
          </mxGeometry>
        </mxCell>
        <mxCell id="51Cz9Sj3qojeg60HBu6H-79" value="" style="endArrow=none;html=1;rounded=0;strokeColor=#08612E;strokeWidth=6;exitX=1;exitY=0.5;exitDx=0;exitDy=0;entryX=0;entryY=1;entryDx=0;entryDy=0;" parent="1" source="51Cz9Sj3qojeg60HBu6H-1" target="51Cz9Sj3qojeg60HBu6H-52" edge="1">
          <mxGeometry width="50" height="50" relative="1" as="geometry">
            <mxPoint x="198" y="518" as="sourcePoint" />
            <mxPoint x="200" y="540" as="targetPoint" />
          </mxGeometry>
        </mxCell>
        <mxCell id="51Cz9Sj3qojeg60HBu6H-80" value="" style="endArrow=none;html=1;rounded=0;strokeColor=#08612E;strokeWidth=6;exitX=0;exitY=0.5;exitDx=0;exitDy=0;entryX=1;entryY=1;entryDx=0;entryDy=0;" parent="1" source="51Cz9Sj3qojeg60HBu6H-10" target="51Cz9Sj3qojeg60HBu6H-52" edge="1">
          <mxGeometry width="50" height="50" relative="1" as="geometry">
            <mxPoint x="210" y="610" as="sourcePoint" />
            <mxPoint x="250" y="590" as="targetPoint" />
          </mxGeometry>
        </mxCell>
        <mxCell id="51Cz9Sj3qojeg60HBu6H-81" value="" style="endArrow=none;html=1;rounded=0;strokeColor=#08612E;strokeWidth=6;exitX=0;exitY=1;exitDx=0;exitDy=0;entryX=1;entryY=0;entryDx=0;entryDy=0;" parent="1" source="51Cz9Sj3qojeg60HBu6H-11" target="51Cz9Sj3qojeg60HBu6H-52" edge="1">
          <mxGeometry width="50" height="50" relative="1" as="geometry">
            <mxPoint x="330" y="610" as="sourcePoint" />
            <mxPoint x="290" y="590" as="targetPoint" />
          </mxGeometry>
        </mxCell>
        <mxCell id="51Cz9Sj3qojeg60HBu6H-82" value="" style="endArrow=none;html=1;rounded=0;strokeColor=#08612E;strokeWidth=6;entryX=0.5;entryY=1;entryDx=0;entryDy=0;exitX=1;exitY=0;exitDx=0;exitDy=0;" parent="1" source="51Cz9Sj3qojeg60HBu6H-15" target="51Cz9Sj3qojeg60HBu6H-14" edge="1">
          <mxGeometry width="50" height="50" relative="1" as="geometry">
            <mxPoint x="200" y="670" as="sourcePoint" />
            <mxPoint x="250" y="590" as="targetPoint" />
          </mxGeometry>
        </mxCell>
        <mxCell id="51Cz9Sj3qojeg60HBu6H-83" value="" style="endArrow=none;html=1;rounded=0;strokeColor=#08612E;strokeWidth=6;entryX=0;entryY=1;entryDx=0;entryDy=0;exitX=1;exitY=0;exitDx=0;exitDy=0;" parent="1" source="51Cz9Sj3qojeg60HBu6H-14" target="51Cz9Sj3qojeg60HBu6H-10" edge="1">
          <mxGeometry width="50" height="50" relative="1" as="geometry">
            <mxPoint x="210" y="690" as="sourcePoint" />
            <mxPoint x="198" y="638" as="targetPoint" />
          </mxGeometry>
        </mxCell>
        <mxCell id="51Cz9Sj3qojeg60HBu6H-84" value="" style="endArrow=none;html=1;rounded=0;strokeColor=#08612E;strokeWidth=6;entryX=1;entryY=1;entryDx=0;entryDy=0;exitX=0;exitY=0;exitDx=0;exitDy=0;" parent="1" source="51Cz9Sj3qojeg60HBu6H-14" target="51Cz9Sj3qojeg60HBu6H-1" edge="1">
          <mxGeometry width="50" height="50" relative="1" as="geometry">
            <mxPoint x="232" y="692" as="sourcePoint" />
            <mxPoint x="198" y="638" as="targetPoint" />
          </mxGeometry>
        </mxCell>
        <mxCell id="51Cz9Sj3qojeg60HBu6H-85" value="" style="endArrow=none;html=1;rounded=0;strokeColor=#08612E;strokeWidth=6;entryX=1;entryY=1;entryDx=0;entryDy=0;exitX=0;exitY=0;exitDx=0;exitDy=0;" parent="1" source="51Cz9Sj3qojeg60HBu6H-53" target="51Cz9Sj3qojeg60HBu6H-14" edge="1">
          <mxGeometry width="50" height="50" relative="1" as="geometry">
            <mxPoint x="258" y="802" as="sourcePoint" />
            <mxPoint x="260" y="760" as="targetPoint" />
          </mxGeometry>
        </mxCell>
        <mxCell id="51Cz9Sj3qojeg60HBu6H-86" value="" style="endArrow=none;html=1;rounded=0;strokeColor=#08612E;strokeWidth=6;entryX=0;entryY=0.5;entryDx=0;entryDy=0;exitX=1;exitY=0;exitDx=0;exitDy=0;" parent="1" source="51Cz9Sj3qojeg60HBu6H-15" target="51Cz9Sj3qojeg60HBu6H-53" edge="1">
          <mxGeometry width="50" height="50" relative="1" as="geometry">
            <mxPoint x="268.2842712474617" y="835.8557287525381" as="sourcePoint" />
            <mxPoint x="300" y="844.14" as="targetPoint" />
          </mxGeometry>
        </mxCell>
        <mxCell id="51Cz9Sj3qojeg60HBu6H-87" value="" style="endArrow=none;html=1;rounded=0;strokeColor=#08612E;strokeWidth=6;entryX=0.5;entryY=1;entryDx=0;entryDy=0;exitX=0;exitY=0;exitDx=15;exitDy=15;exitPerimeter=0;" parent="1" source="51Cz9Sj3qojeg60HBu6H-27" target="51Cz9Sj3qojeg60HBu6H-10" edge="1">
          <mxGeometry width="50" height="50" relative="1" as="geometry">
            <mxPoint x="310" y="790" as="sourcePoint" />
            <mxPoint x="288" y="748" as="targetPoint" />
          </mxGeometry>
        </mxCell>
        <mxCell id="51Cz9Sj3qojeg60HBu6H-88" value="" style="endArrow=none;html=1;rounded=0;strokeColor=#08612E;strokeWidth=6;entryX=0;entryY=0;entryDx=65;entryDy=65;exitX=0;exitY=0;exitDx=15;exitDy=15;exitPerimeter=0;entryPerimeter=0;" parent="1" source="51Cz9Sj3qojeg60HBu6H-28" target="51Cz9Sj3qojeg60HBu6H-27" edge="1">
          <mxGeometry width="50" height="50" relative="1" as="geometry">
            <mxPoint x="385" y="705" as="sourcePoint" />
            <mxPoint x="370" y="650" as="targetPoint" />
          </mxGeometry>
        </mxCell>
        <mxCell id="51Cz9Sj3qojeg60HBu6H-89" value="" style="endArrow=none;html=1;rounded=0;strokeColor=#08612E;strokeWidth=6;entryX=1;entryY=0.5;entryDx=0;entryDy=0;exitX=0;exitY=0.5;exitDx=0;exitDy=0;exitPerimeter=0;entryPerimeter=0;" parent="1" source="51Cz9Sj3qojeg60HBu6H-29" target="51Cz9Sj3qojeg60HBu6H-28" edge="1">
          <mxGeometry width="50" height="50" relative="1" as="geometry">
            <mxPoint x="505" y="785" as="sourcePoint" />
            <mxPoint x="435" y="755" as="targetPoint" />
          </mxGeometry>
        </mxCell>
        <mxCell id="51Cz9Sj3qojeg60HBu6H-90" value="" style="endArrow=none;html=1;rounded=0;strokeColor=#08612E;strokeWidth=6;entryX=1;entryY=0.5;entryDx=0;entryDy=0;exitX=0;exitY=0.5;exitDx=0;exitDy=0;entryPerimeter=0;" parent="1" source="51Cz9Sj3qojeg60HBu6H-32" target="51Cz9Sj3qojeg60HBu6H-29" edge="1">
          <mxGeometry width="50" height="50" relative="1" as="geometry">
            <mxPoint x="790" y="790" as="sourcePoint" />
            <mxPoint x="720" y="790" as="targetPoint" />
          </mxGeometry>
        </mxCell>
        <mxCell id="51Cz9Sj3qojeg60HBu6H-91" value="" style="endArrow=none;html=1;rounded=0;strokeColor=#08612E;strokeWidth=6;entryX=1;entryY=0.5;entryDx=0;entryDy=0;exitX=0;exitY=0.5;exitDx=0;exitDy=0;" parent="1" source="51Cz9Sj3qojeg60HBu6H-39" target="51Cz9Sj3qojeg60HBu6H-32" edge="1">
          <mxGeometry width="50" height="50" relative="1" as="geometry">
            <mxPoint x="820" y="850" as="sourcePoint" />
            <mxPoint x="720" y="810" as="targetPoint" />
          </mxGeometry>
        </mxCell>
        <mxCell id="51Cz9Sj3qojeg60HBu6H-92" value="" style="endArrow=none;html=1;rounded=0;strokeColor=#08612E;strokeWidth=6;entryX=0.5;entryY=1;entryDx=0;entryDy=0;exitX=0.5;exitY=0;exitDx=0;exitDy=0;" parent="1" source="51Cz9Sj3qojeg60HBu6H-60" target="51Cz9Sj3qojeg60HBu6H-59" edge="1">
          <mxGeometry width="50" height="50" relative="1" as="geometry">
            <mxPoint x="990" y="860" as="sourcePoint" />
            <mxPoint x="900" y="850" as="targetPoint" />
          </mxGeometry>
        </mxCell>
        <mxCell id="51Cz9Sj3qojeg60HBu6H-93" value="" style="endArrow=none;html=1;rounded=0;strokeColor=#08612E;strokeWidth=6;entryX=1;entryY=0;entryDx=0;entryDy=0;exitX=0;exitY=1;exitDx=0;exitDy=0;" parent="1" source="51Cz9Sj3qojeg60HBu6H-59" target="51Cz9Sj3qojeg60HBu6H-32" edge="1">
          <mxGeometry width="50" height="50" relative="1" as="geometry">
            <mxPoint x="990" y="860" as="sourcePoint" />
            <mxPoint x="900" y="850" as="targetPoint" />
          </mxGeometry>
        </mxCell>
        <mxCell id="51Cz9Sj3qojeg60HBu6H-94" value="" style="endArrow=none;html=1;rounded=0;strokeColor=#08612E;strokeWidth=6;entryX=1;entryY=1;entryDx=0;entryDy=0;exitX=0;exitY=0;exitDx=0;exitDy=0;" parent="1" source="51Cz9Sj3qojeg60HBu6H-39" target="51Cz9Sj3qojeg60HBu6H-59" edge="1">
          <mxGeometry width="50" height="50" relative="1" as="geometry">
            <mxPoint x="930" y="820" as="sourcePoint" />
            <mxPoint x="888" y="822" as="targetPoint" />
          </mxGeometry>
        </mxCell>
        <mxCell id="51Cz9Sj3qojeg60HBu6H-95" value="" style="endArrow=none;html=1;rounded=0;strokeColor=#08612E;strokeWidth=6;entryX=0.5;entryY=0;entryDx=0;entryDy=0;exitX=0.5;exitY=1;exitDx=0;exitDy=0;" parent="1" source="51Cz9Sj3qojeg60HBu6H-31" target="51Cz9Sj3qojeg60HBu6H-32" edge="1">
          <mxGeometry width="50" height="50" relative="1" as="geometry">
            <mxPoint x="930" y="820" as="sourcePoint" />
            <mxPoint x="888" y="822" as="targetPoint" />
          </mxGeometry>
        </mxCell>
        <mxCell id="51Cz9Sj3qojeg60HBu6H-96" value="" style="endArrow=none;html=1;rounded=0;strokeColor=#08612E;strokeWidth=6;entryX=0.5;entryY=1;entryDx=0;entryDy=0;exitX=0.5;exitY=0;exitDx=0;exitDy=0;" parent="1" source="51Cz9Sj3qojeg60HBu6H-59" target="51Cz9Sj3qojeg60HBu6H-58" edge="1">
          <mxGeometry width="50" height="50" relative="1" as="geometry">
            <mxPoint x="850" y="770" as="sourcePoint" />
            <mxPoint x="860" y="810" as="targetPoint" />
          </mxGeometry>
        </mxCell>
        <mxCell id="51Cz9Sj3qojeg60HBu6H-97" value="" style="endArrow=none;html=1;rounded=0;strokeColor=#08612E;strokeWidth=6;entryX=0;entryY=1;entryDx=0;entryDy=0;exitX=1;exitY=0.5;exitDx=0;exitDy=0;" parent="1" source="51Cz9Sj3qojeg60HBu6H-31" target="51Cz9Sj3qojeg60HBu6H-58" edge="1">
          <mxGeometry width="50" height="50" relative="1" as="geometry">
            <mxPoint x="850" y="770" as="sourcePoint" />
            <mxPoint x="860" y="810" as="targetPoint" />
          </mxGeometry>
        </mxCell>
        <mxCell id="51Cz9Sj3qojeg60HBu6H-98" value="" style="endArrow=none;html=1;rounded=0;strokeColor=#08612E;strokeWidth=6;entryX=1;entryY=0.5;entryDx=0;entryDy=0;exitX=0;exitY=0;exitDx=0;exitDy=0;" parent="1" source="51Cz9Sj3qojeg60HBu6H-59" target="51Cz9Sj3qojeg60HBu6H-31" edge="1">
          <mxGeometry width="50" height="50" relative="1" as="geometry">
            <mxPoint x="890" y="730" as="sourcePoint" />
            <mxPoint x="940" y="700" as="targetPoint" />
          </mxGeometry>
        </mxCell>
        <mxCell id="51Cz9Sj3qojeg60HBu6H-99" value="" style="endArrow=none;html=1;rounded=0;strokeColor=#08612E;strokeWidth=6;entryX=0.5;entryY=0;entryDx=0;entryDy=0;exitX=0;exitY=1;exitDx=0;exitDy=0;" parent="1" source="51Cz9Sj3qojeg60HBu6H-30" target="51Cz9Sj3qojeg60HBu6H-31" edge="1">
          <mxGeometry width="50" height="50" relative="1" as="geometry">
            <mxPoint x="930" y="780" as="sourcePoint" />
            <mxPoint x="878" y="758" as="targetPoint" />
          </mxGeometry>
        </mxCell>
        <mxCell id="51Cz9Sj3qojeg60HBu6H-100" value="" style="endArrow=none;html=1;rounded=0;strokeColor=#08612E;strokeWidth=6;entryX=0;entryY=0.5;entryDx=0;entryDy=0;exitX=1;exitY=0.5;exitDx=0;exitDy=0;" parent="1" source="51Cz9Sj3qojeg60HBu6H-30" target="51Cz9Sj3qojeg60HBu6H-41" edge="1">
          <mxGeometry width="50" height="50" relative="1" as="geometry">
            <mxPoint x="862" y="638" as="sourcePoint" />
            <mxPoint x="850" y="690" as="targetPoint" />
          </mxGeometry>
        </mxCell>
        <mxCell id="51Cz9Sj3qojeg60HBu6H-101" value="" style="endArrow=none;html=1;rounded=0;strokeColor=#08612E;strokeWidth=6;entryX=0.5;entryY=0;entryDx=0;entryDy=0;exitX=0.5;exitY=1;exitDx=0;exitDy=0;" parent="1" source="51Cz9Sj3qojeg60HBu6H-41" target="51Cz9Sj3qojeg60HBu6H-40" edge="1">
          <mxGeometry width="50" height="50" relative="1" as="geometry">
            <mxPoint x="930" y="610" as="sourcePoint" />
            <mxPoint x="1010" y="610" as="targetPoint" />
          </mxGeometry>
        </mxCell>
        <mxCell id="51Cz9Sj3qojeg60HBu6H-102" value="" style="endArrow=none;html=1;rounded=0;strokeColor=#08612E;strokeWidth=6;entryX=0.5;entryY=0;entryDx=0;entryDy=0;exitX=0.5;exitY=1;exitDx=0;exitDy=0;" parent="1" source="51Cz9Sj3qojeg60HBu6H-40" target="51Cz9Sj3qojeg60HBu6H-39" edge="1">
          <mxGeometry width="50" height="50" relative="1" as="geometry">
            <mxPoint x="1050" y="650" as="sourcePoint" />
            <mxPoint x="1050" y="700" as="targetPoint" />
          </mxGeometry>
        </mxCell>
        <mxCell id="51Cz9Sj3qojeg60HBu6H-103" value="" style="endArrow=none;html=1;rounded=0;strokeColor=#08612E;strokeWidth=6;entryX=1;entryY=0;entryDx=0;entryDy=0;exitX=0;exitY=0.5;exitDx=0;exitDy=0;" parent="1" source="51Cz9Sj3qojeg60HBu6H-40" target="51Cz9Sj3qojeg60HBu6H-59" edge="1">
          <mxGeometry width="50" height="50" relative="1" as="geometry">
            <mxPoint x="1050" y="780" as="sourcePoint" />
            <mxPoint x="1030" y="820" as="targetPoint" />
          </mxGeometry>
        </mxCell>
        <mxCell id="51Cz9Sj3qojeg60HBu6H-104" value="" style="endArrow=none;html=1;rounded=0;strokeColor=#08612E;strokeWidth=6;entryX=1;entryY=1;entryDx=0;entryDy=0;exitX=0;exitY=0.5;exitDx=0;exitDy=0;" parent="1" source="51Cz9Sj3qojeg60HBu6H-40" target="51Cz9Sj3qojeg60HBu6H-58" edge="1">
          <mxGeometry width="50" height="50" relative="1" as="geometry">
            <mxPoint x="1010" y="740" as="sourcePoint" />
            <mxPoint x="970" y="780" as="targetPoint" />
          </mxGeometry>
        </mxCell>
        <mxCell id="51Cz9Sj3qojeg60HBu6H-105" value="" style="endArrow=none;html=1;rounded=0;strokeColor=#08612E;strokeWidth=6;entryX=0;entryY=0;entryDx=0;entryDy=0;exitX=1;exitY=1;exitDx=0;exitDy=0;" parent="1" source="51Cz9Sj3qojeg60HBu6H-30" target="51Cz9Sj3qojeg60HBu6H-58" edge="1">
          <mxGeometry width="50" height="50" relative="1" as="geometry">
            <mxPoint x="890" y="730" as="sourcePoint" />
            <mxPoint x="940" y="700" as="targetPoint" />
          </mxGeometry>
        </mxCell>
        <mxCell id="51Cz9Sj3qojeg60HBu6H-106" value="" style="endArrow=none;html=1;rounded=0;strokeColor=#08612E;strokeWidth=6;entryX=1;entryY=0;entryDx=0;entryDy=0;exitX=0;exitY=1;exitDx=0;exitDy=0;" parent="1" source="51Cz9Sj3qojeg60HBu6H-41" target="51Cz9Sj3qojeg60HBu6H-58" edge="1">
          <mxGeometry width="50" height="50" relative="1" as="geometry">
            <mxPoint x="1079.9957287525378" y="638.2842712474618" as="sourcePoint" />
            <mxPoint x="1008.28" y="670" as="targetPoint" />
          </mxGeometry>
        </mxCell>
        <mxCell id="51Cz9Sj3qojeg60HBu6H-107" value="" style="endArrow=none;html=1;rounded=0;strokeColor=#08612E;strokeWidth=6;entryX=0;entryY=0.5;entryDx=0;entryDy=0;exitX=1;exitY=0.5;exitDx=0;exitDy=0;" parent="1" source="51Cz9Sj3qojeg60HBu6H-41" target="51Cz9Sj3qojeg60HBu6H-42" edge="1">
          <mxGeometry width="50" height="50" relative="1" as="geometry">
            <mxPoint x="1022" y="638" as="sourcePoint" />
            <mxPoint x="980" y="660" as="targetPoint" />
          </mxGeometry>
        </mxCell>
        <mxCell id="51Cz9Sj3qojeg60HBu6H-108" value="" style="endArrow=none;html=1;rounded=0;strokeColor=#08612E;strokeWidth=6;entryX=0;entryY=0;entryDx=0;entryDy=0;exitX=1;exitY=1;exitDx=0;exitDy=0;" parent="1" source="51Cz9Sj3qojeg60HBu6H-42" target="51Cz9Sj3qojeg60HBu6H-43" edge="1">
          <mxGeometry width="50" height="50" relative="1" as="geometry">
            <mxPoint x="1090" y="610" as="sourcePoint" />
            <mxPoint x="1140" y="610" as="targetPoint" />
          </mxGeometry>
        </mxCell>
        <mxCell id="51Cz9Sj3qojeg60HBu6H-109" value="" style="endArrow=none;html=1;rounded=0;strokeColor=#08612E;strokeWidth=6;entryX=0;entryY=0.5;entryDx=0;entryDy=0;exitX=1;exitY=1;exitDx=0;exitDy=0;" parent="1" source="51Cz9Sj3qojeg60HBu6H-17" target="51Cz9Sj3qojeg60HBu6H-43" edge="1">
          <mxGeometry width="50" height="50" relative="1" as="geometry">
            <mxPoint x="1208" y="638" as="sourcePoint" />
            <mxPoint x="1222" y="702" as="targetPoint" />
          </mxGeometry>
        </mxCell>
        <mxCell id="51Cz9Sj3qojeg60HBu6H-110" value="" style="endArrow=none;html=1;rounded=0;strokeColor=#08612E;strokeWidth=6;entryX=1;entryY=0.5;entryDx=0;entryDy=0;exitX=0;exitY=1;exitDx=0;exitDy=0;" parent="1" source="51Cz9Sj3qojeg60HBu6H-17" target="51Cz9Sj3qojeg60HBu6H-40" edge="1">
          <mxGeometry width="50" height="50" relative="1" as="geometry">
            <mxPoint x="1170" y="730" as="sourcePoint" />
            <mxPoint x="1210" y="730" as="targetPoint" />
          </mxGeometry>
        </mxCell>
        <mxCell id="51Cz9Sj3qojeg60HBu6H-111" value="" style="endArrow=none;html=1;rounded=0;strokeColor=#08612E;strokeWidth=6;entryX=0.5;entryY=1;entryDx=0;entryDy=0;exitX=0.5;exitY=0;exitDx=0;exitDy=0;" parent="1" source="51Cz9Sj3qojeg60HBu6H-44" target="51Cz9Sj3qojeg60HBu6H-43" edge="1">
          <mxGeometry width="50" height="50" relative="1" as="geometry">
            <mxPoint x="1130" y="730" as="sourcePoint" />
            <mxPoint x="1090" y="740" as="targetPoint" />
          </mxGeometry>
        </mxCell>
        <mxCell id="51Cz9Sj3qojeg60HBu6H-112" value="" style="endArrow=none;html=1;rounded=0;entryX=1;entryY=0.5;entryDx=0;entryDy=0;strokeColor=#08612E;strokeWidth=6;exitX=0;exitY=1;exitDx=0;exitDy=0;" parent="1" source="51Cz9Sj3qojeg60HBu6H-57" target="51Cz9Sj3qojeg60HBu6H-35" edge="1">
          <mxGeometry width="50" height="50" relative="1" as="geometry">
            <mxPoint x="930" y="450" as="sourcePoint" />
            <mxPoint x="970" y="410" as="targetPoint" />
          </mxGeometry>
        </mxCell>
        <mxCell id="51Cz9Sj3qojeg60HBu6H-113" value="" style="endArrow=none;html=1;rounded=0;entryX=0.5;entryY=0;entryDx=0;entryDy=0;strokeColor=#08612E;strokeWidth=6;exitX=0.5;exitY=1;exitDx=0;exitDy=0;" parent="1" source="51Cz9Sj3qojeg60HBu6H-56" target="51Cz9Sj3qojeg60HBu6H-57" edge="1">
          <mxGeometry width="50" height="50" relative="1" as="geometry">
            <mxPoint x="1070" y="350" as="sourcePoint" />
            <mxPoint x="1010" y="370" as="targetPoint" />
          </mxGeometry>
        </mxCell>
        <mxCell id="51Cz9Sj3qojeg60HBu6H-114" value="" style="endArrow=none;html=1;rounded=0;entryX=1;entryY=0.5;entryDx=0;entryDy=0;strokeColor=#08612E;strokeWidth=6;exitX=0;exitY=1;exitDx=0;exitDy=0;" parent="1" source="51Cz9Sj3qojeg60HBu6H-56" target="51Cz9Sj3qojeg60HBu6H-36" edge="1">
          <mxGeometry width="50" height="50" relative="1" as="geometry">
            <mxPoint x="1090" y="250" as="sourcePoint" />
            <mxPoint x="1090" y="290" as="targetPoint" />
          </mxGeometry>
        </mxCell>
        <mxCell id="51Cz9Sj3qojeg60HBu6H-115" value="" style="endArrow=none;html=1;rounded=0;entryX=0.5;entryY=1;entryDx=0;entryDy=0;strokeColor=#08612E;strokeWidth=6;exitX=0.5;exitY=0;exitDx=0;exitDy=0;" parent="1" source="51Cz9Sj3qojeg60HBu6H-36" target="51Cz9Sj3qojeg60HBu6H-38" edge="1">
          <mxGeometry width="50" height="50" relative="1" as="geometry">
            <mxPoint x="1020" y="170" as="sourcePoint" />
            <mxPoint x="1010" y="250" as="targetPoint" />
          </mxGeometry>
        </mxCell>
        <mxCell id="51Cz9Sj3qojeg60HBu6H-116" value="" style="endArrow=none;html=1;rounded=0;entryX=0.5;entryY=0;entryDx=0;entryDy=0;strokeColor=#08612E;strokeWidth=6;exitX=0.5;exitY=1;exitDx=0;exitDy=0;" parent="1" source="51Cz9Sj3qojeg60HBu6H-37" target="51Cz9Sj3qojeg60HBu6H-34" edge="1">
          <mxGeometry width="50" height="50" relative="1" as="geometry">
            <mxPoint x="970" y="210" as="sourcePoint" />
            <mxPoint x="970" y="170" as="targetPoint" />
          </mxGeometry>
        </mxCell>
        <mxCell id="51Cz9Sj3qojeg60HBu6H-117" value="" style="endArrow=none;html=1;rounded=0;entryX=0;entryY=1;entryDx=0;entryDy=0;strokeColor=#08612E;strokeWidth=6;exitX=1;exitY=0.5;exitDx=0;exitDy=0;" parent="1" source="51Cz9Sj3qojeg60HBu6H-37" target="51Cz9Sj3qojeg60HBu6H-38" edge="1">
          <mxGeometry width="50" height="50" relative="1" as="geometry">
            <mxPoint x="878" y="182" as="sourcePoint" />
            <mxPoint x="942" y="158" as="targetPoint" />
          </mxGeometry>
        </mxCell>
        <mxCell id="51Cz9Sj3qojeg60HBu6H-118" value="" style="endArrow=none;html=1;rounded=0;entryX=0;entryY=0;entryDx=0;entryDy=0;strokeColor=#08612E;strokeWidth=6;exitX=1;exitY=0.5;exitDx=0;exitDy=0;" parent="1" source="51Cz9Sj3qojeg60HBu6H-34" target="51Cz9Sj3qojeg60HBu6H-35" edge="1">
          <mxGeometry width="50" height="50" relative="1" as="geometry">
            <mxPoint x="850" y="250" as="sourcePoint" />
            <mxPoint x="850" y="290" as="targetPoint" />
          </mxGeometry>
        </mxCell>
        <mxCell id="51Cz9Sj3qojeg60HBu6H-119" value="" style="endArrow=none;html=1;rounded=0;entryX=0.5;entryY=1;entryDx=0;entryDy=0;strokeColor=#08612E;strokeWidth=6;exitX=0.5;exitY=0;exitDx=0;exitDy=0;" parent="1" source="51Cz9Sj3qojeg60HBu6H-35" target="51Cz9Sj3qojeg60HBu6H-36" edge="1">
          <mxGeometry width="50" height="50" relative="1" as="geometry">
            <mxPoint x="890" y="330" as="sourcePoint" />
            <mxPoint x="942" y="342" as="targetPoint" />
          </mxGeometry>
        </mxCell>
        <mxCell id="51Cz9Sj3qojeg60HBu6H-120" value="" style="endArrow=none;html=1;rounded=0;strokeColor=#08612E;strokeWidth=6;entryX=0.5;entryY=1;entryDx=0;entryDy=0;exitX=0.5;exitY=0;exitDx=0;exitDy=0;" parent="1" source="51Cz9Sj3qojeg60HBu6H-21" target="51Cz9Sj3qojeg60HBu6H-4" edge="1">
          <mxGeometry width="50" height="50" relative="1" as="geometry">
            <mxPoint x="210" y="90" as="sourcePoint" />
            <mxPoint x="500" y="60" as="targetPoint" />
          </mxGeometry>
        </mxCell>
        <mxCell id="51Cz9Sj3qojeg60HBu6H-121" value="" style="endArrow=none;html=1;rounded=0;strokeColor=#08612E;strokeWidth=6;entryX=0.5;entryY=1;entryDx=0;entryDy=0;exitX=0.5;exitY=0;exitDx=0;exitDy=0;" parent="1" source="51Cz9Sj3qojeg60HBu6H-22" target="51Cz9Sj3qojeg60HBu6H-21" edge="1">
          <mxGeometry width="50" height="50" relative="1" as="geometry">
            <mxPoint x="610" y="170" as="sourcePoint" />
            <mxPoint x="610" y="130" as="targetPoint" />
          </mxGeometry>
        </mxCell>
        <mxCell id="51Cz9Sj3qojeg60HBu6H-122" value="" style="endArrow=none;html=1;rounded=0;strokeColor=#08612E;strokeWidth=6;entryX=0;entryY=0;entryDx=15;entryDy=65;exitX=0.5;exitY=0;exitDx=0;exitDy=0;entryPerimeter=0;" parent="1" source="51Cz9Sj3qojeg60HBu6H-30" target="51Cz9Sj3qojeg60HBu6H-33" edge="1">
          <mxGeometry width="50" height="50" relative="1" as="geometry">
            <mxPoint x="930" y="610" as="sourcePoint" />
            <mxPoint x="1010" y="610" as="targetPoint" />
          </mxGeometry>
        </mxCell>
        <mxCell id="51Cz9Sj3qojeg60HBu6H-123" value="" style="endArrow=none;html=1;rounded=0;strokeColor=#08612E;strokeWidth=6;entryX=0;entryY=0.5;entryDx=0;entryDy=0;exitX=1;exitY=0.5;exitDx=0;exitDy=0;exitPerimeter=0;" parent="1" source="51Cz9Sj3qojeg60HBu6H-26" target="51Cz9Sj3qojeg60HBu6H-30" edge="1">
          <mxGeometry width="50" height="50" relative="1" as="geometry">
            <mxPoint x="862" y="638" as="sourcePoint" />
            <mxPoint x="850" y="690" as="targetPoint" />
          </mxGeometry>
        </mxCell>
        <mxCell id="51Cz9Sj3qojeg60HBu6H-124" value="" style="endArrow=none;html=1;rounded=0;strokeColor=#08612E;strokeWidth=6;entryX=1;entryY=0.5;entryDx=0;entryDy=0;exitX=0;exitY=0.5;exitDx=0;exitDy=0;exitPerimeter=0;entryPerimeter=0;" parent="1" source="51Cz9Sj3qojeg60HBu6H-26" target="51Cz9Sj3qojeg60HBu6H-5" edge="1">
          <mxGeometry width="50" height="50" relative="1" as="geometry">
            <mxPoint x="790" y="610" as="sourcePoint" />
            <mxPoint x="850" y="610" as="targetPoint" />
          </mxGeometry>
        </mxCell>
        <mxCell id="51Cz9Sj3qojeg60HBu6H-125" value="" style="endArrow=none;html=1;rounded=0;strokeColor=#08612E;strokeWidth=6;entryX=0;entryY=0.5;entryDx=0;entryDy=0;exitX=1;exitY=0.5;exitDx=0;exitDy=0;entryPerimeter=0;" parent="1" source="51Cz9Sj3qojeg60HBu6H-19" target="51Cz9Sj3qojeg60HBu6H-5" edge="1">
          <mxGeometry width="50" height="50" relative="1" as="geometry">
            <mxPoint x="710" y="610" as="sourcePoint" />
            <mxPoint x="650" y="610" as="targetPoint" />
          </mxGeometry>
        </mxCell>
        <mxCell id="51Cz9Sj3qojeg60HBu6H-126" value="" style="endArrow=none;html=1;rounded=0;strokeColor=#08612E;strokeWidth=6;entryX=1;entryY=0.5;entryDx=0;entryDy=0;exitX=0;exitY=0.5;exitDx=0;exitDy=0;" parent="1" source="51Cz9Sj3qojeg60HBu6H-19" target="51Cz9Sj3qojeg60HBu6H-10" edge="1">
          <mxGeometry width="50" height="50" relative="1" as="geometry">
            <mxPoint x="530" y="610" as="sourcePoint" />
            <mxPoint x="570" y="610" as="targetPoint" />
          </mxGeometry>
        </mxCell>
        <mxCell id="51Cz9Sj3qojeg60HBu6H-127" value="" style="endArrow=none;html=1;rounded=0;strokeColor=#08612E;strokeWidth=6;entryX=0.5;entryY=1;entryDx=0;entryDy=0;exitX=0.5;exitY=0;exitDx=0;exitDy=0;" parent="1" source="51Cz9Sj3qojeg60HBu6H-11" target="51Cz9Sj3qojeg60HBu6H-12" edge="1">
          <mxGeometry width="50" height="50" relative="1" as="geometry">
            <mxPoint x="450" y="330" as="sourcePoint" />
            <mxPoint x="410" y="370" as="targetPoint" />
          </mxGeometry>
        </mxCell>
        <mxCell id="51Cz9Sj3qojeg60HBu6H-128" value="" style="endArrow=none;html=1;rounded=0;strokeColor=#08612E;strokeWidth=6;entryX=0.5;entryY=1;entryDx=0;entryDy=0;exitX=0.5;exitY=0;exitDx=0;exitDy=0;" parent="1" source="51Cz9Sj3qojeg60HBu6H-7" target="51Cz9Sj3qojeg60HBu6H-8" edge="1">
          <mxGeometry width="50" height="50" relative="1" as="geometry">
            <mxPoint x="370" y="450" as="sourcePoint" />
            <mxPoint x="370" y="410" as="targetPoint" />
          </mxGeometry>
        </mxCell>
        <mxCell id="51Cz9Sj3qojeg60HBu6H-129" value="" style="endArrow=none;html=1;rounded=0;strokeColor=#08612E;strokeWidth=6;entryX=0.5;entryY=1;entryDx=0;entryDy=0;exitX=0.5;exitY=0;exitDx=0;exitDy=0;" parent="1" source="51Cz9Sj3qojeg60HBu6H-1" target="51Cz9Sj3qojeg60HBu6H-7" edge="1">
          <mxGeometry width="50" height="50" relative="1" as="geometry">
            <mxPoint x="170" y="450" as="sourcePoint" />
            <mxPoint x="170" y="410" as="targetPoint" />
          </mxGeometry>
        </mxCell>
        <mxCell id="51Cz9Sj3qojeg60HBu6H-130" value="" style="endArrow=none;html=1;rounded=0;strokeColor=#08612E;strokeWidth=6;entryX=0;entryY=0.5;entryDx=0;entryDy=0;exitX=1;exitY=0.5;exitDx=0;exitDy=0;" parent="1" source="51Cz9Sj3qojeg60HBu6H-55" target="51Cz9Sj3qojeg60HBu6H-1" edge="1">
          <mxGeometry width="50" height="50" relative="1" as="geometry">
            <mxPoint x="170" y="570" as="sourcePoint" />
            <mxPoint x="170" y="530" as="targetPoint" />
          </mxGeometry>
        </mxCell>
        <mxCell id="51Cz9Sj3qojeg60HBu6H-131" value="" style="endArrow=none;html=1;rounded=0;strokeColor=#08612E;strokeWidth=6;entryX=0;entryY=0.5;entryDx=0;entryDy=0;exitX=1;exitY=0.5;exitDx=0;exitDy=0;" parent="1" source="51Cz9Sj3qojeg60HBu6H-47" target="51Cz9Sj3qojeg60HBu6H-7" edge="1">
          <mxGeometry width="50" height="50" relative="1" as="geometry">
            <mxPoint x="90" y="610" as="sourcePoint" />
            <mxPoint x="130" y="610" as="targetPoint" />
          </mxGeometry>
        </mxCell>
        <mxCell id="51Cz9Sj3qojeg60HBu6H-132" value="" style="endArrow=none;html=1;rounded=0;strokeColor=#08612E;strokeWidth=6;entryX=1;entryY=0.5;entryDx=0;entryDy=0;exitX=0;exitY=0.5;exitDx=0;exitDy=0;" parent="1" source="51Cz9Sj3qojeg60HBu6H-47" target="51Cz9Sj3qojeg60HBu6H-54" edge="1">
          <mxGeometry width="50" height="50" relative="1" as="geometry">
            <mxPoint x="90" y="490" as="sourcePoint" />
            <mxPoint x="130" y="490" as="targetPoint" />
          </mxGeometry>
        </mxCell>
        <mxCell id="51Cz9Sj3qojeg60HBu6H-133" value="" style="endArrow=none;html=1;rounded=0;strokeColor=#08612E;strokeWidth=6;entryX=1;entryY=0.5;entryDx=0;entryDy=0;exitX=0;exitY=0.5;exitDx=0;exitDy=0;" parent="1" source="51Cz9Sj3qojeg60HBu6H-45" target="51Cz9Sj3qojeg60HBu6H-46" edge="1">
          <mxGeometry width="50" height="50" relative="1" as="geometry">
            <mxPoint x="10" y="490" as="sourcePoint" />
            <mxPoint x="-30" y="490" as="targetPoint" />
          </mxGeometry>
        </mxCell>
        <mxCell id="51Cz9Sj3qojeg60HBu6H-134" value="" style="endArrow=none;html=1;rounded=0;strokeColor=#08612E;strokeWidth=6;entryX=1;entryY=0.5;entryDx=0;entryDy=0;exitX=0;exitY=0.5;exitDx=0;exitDy=0;" parent="1" source="51Cz9Sj3qojeg60HBu6H-8" target="51Cz9Sj3qojeg60HBu6H-45" edge="1">
          <mxGeometry width="50" height="50" relative="1" as="geometry">
            <mxPoint x="10" y="370" as="sourcePoint" />
            <mxPoint x="-30" y="370" as="targetPoint" />
          </mxGeometry>
        </mxCell>
        <mxCell id="51Cz9Sj3qojeg60HBu6H-135" value="" style="endArrow=none;html=1;rounded=0;strokeColor=#08612E;strokeWidth=6;entryX=0.5;entryY=1;entryDx=0;entryDy=0;exitX=0.5;exitY=0;exitDx=0;exitDy=0;" parent="1" source="51Cz9Sj3qojeg60HBu6H-54" target="51Cz9Sj3qojeg60HBu6H-46" edge="1">
          <mxGeometry width="50" height="50" relative="1" as="geometry">
            <mxPoint x="130" y="370" as="sourcePoint" />
            <mxPoint x="90" y="370" as="targetPoint" />
          </mxGeometry>
        </mxCell>
        <mxCell id="51Cz9Sj3qojeg60HBu6H-136" value="" style="endArrow=none;html=1;rounded=0;strokeColor=#08612E;strokeWidth=6;entryX=0.5;entryY=1;entryDx=0;entryDy=0;exitX=0.5;exitY=0;exitDx=0;exitDy=0;" parent="1" source="51Cz9Sj3qojeg60HBu6H-47" target="51Cz9Sj3qojeg60HBu6H-45" edge="1">
          <mxGeometry width="50" height="50" relative="1" as="geometry">
            <mxPoint x="50" y="450" as="sourcePoint" />
            <mxPoint x="50" y="410" as="targetPoint" />
          </mxGeometry>
        </mxCell>
        <mxCell id="51Cz9Sj3qojeg60HBu6H-137" value="" style="endArrow=none;html=1;rounded=0;strokeColor=#08612E;strokeWidth=6;entryX=0.5;entryY=1;entryDx=0;entryDy=0;exitX=0.5;exitY=0;exitDx=0;exitDy=0;" parent="1" source="51Cz9Sj3qojeg60HBu6H-55" target="51Cz9Sj3qojeg60HBu6H-47" edge="1">
          <mxGeometry width="50" height="50" relative="1" as="geometry">
            <mxPoint x="50" y="450" as="sourcePoint" />
            <mxPoint x="50" y="410" as="targetPoint" />
          </mxGeometry>
        </mxCell>
        <mxCell id="51Cz9Sj3qojeg60HBu6H-138" value="" style="endArrow=none;html=1;rounded=0;strokeColor=#08612E;strokeWidth=6;entryX=0.5;entryY=1;entryDx=0;entryDy=0;exitX=0.5;exitY=0;exitDx=0;exitDy=0;" parent="1" source="51Cz9Sj3qojeg60HBu6H-10" target="51Cz9Sj3qojeg60HBu6H-11" edge="1">
          <mxGeometry width="50" height="50" relative="1" as="geometry">
            <mxPoint x="370" y="450" as="sourcePoint" />
            <mxPoint x="370" y="410" as="targetPoint" />
          </mxGeometry>
        </mxCell>
        <mxCell id="51Cz9Sj3qojeg60HBu6H-140" value="&lt;div style=&quot;&quot;&gt;&lt;span style=&quot;font-size: 20px; font-weight: 700; text-wrap: wrap;&quot;&gt;0&lt;/span&gt;&lt;br&gt;&lt;/div&gt;" style="strokeWidth=2;html=1;shape=mxgraph.lean_mapping.truck_shipment;fillColor=#360204;align=center;strokeColor=#545709;" parent="1" vertex="1">
          <mxGeometry x="150" y="750" width="60" height="60" as="geometry" />
        </mxCell>
        <mxCell id="51Cz9Sj3qojeg60HBu6H-142" value="&lt;div style=&quot;&quot;&gt;&lt;span style=&quot;font-size: 20px; font-weight: 700; text-wrap: wrap;&quot;&gt;1&lt;/span&gt;&lt;br&gt;&lt;/div&gt;" style="strokeWidth=2;html=1;shape=mxgraph.lean_mapping.truck_shipment;fillColor=#360204;align=center;strokeColor=#545709;" parent="1" vertex="1">
          <mxGeometry x="90" y="290" width="60" height="60" as="geometry" />
        </mxCell>
        <mxCell id="51Cz9Sj3qojeg60HBu6H-144" value="&lt;div style=&quot;&quot;&gt;&lt;span style=&quot;font-size: 20px; font-weight: 700; text-wrap: wrap;&quot;&gt;4&lt;/span&gt;&lt;br&gt;&lt;/div&gt;" style="strokeWidth=2;html=1;shape=mxgraph.lean_mapping.truck_shipment;fillColor=#360204;align=center;strokeColor=#545709;" parent="1" vertex="1">
          <mxGeometry x="960" y="300" width="60" height="60" as="geometry" />
        </mxCell>
        <mxCell id="51Cz9Sj3qojeg60HBu6H-145" value="&lt;div style=&quot;&quot;&gt;&lt;span style=&quot;font-size: 20px; font-weight: 700; text-wrap: wrap;&quot;&gt;3&lt;/span&gt;&lt;br&gt;&lt;/div&gt;" style="strokeWidth=2;html=1;shape=mxgraph.lean_mapping.truck_shipment;fillColor=#360204;align=center;strokeColor=#545709;" parent="1" vertex="1">
          <mxGeometry x="890" y="540" width="60" height="60" as="geometry" />
        </mxCell>
        <mxCell id="51Cz9Sj3qojeg60HBu6H-146" value="&lt;div style=&quot;&quot;&gt;&lt;span style=&quot;font-size: 20px; font-weight: 700; text-wrap: wrap;&quot;&gt;2&lt;/span&gt;&lt;br&gt;&lt;/div&gt;" style="strokeWidth=2;html=1;shape=mxgraph.lean_mapping.truck_shipment;fillColor=#360204;align=center;strokeColor=#545709;" parent="1" vertex="1">
          <mxGeometry x="1040" y="800" width="60" height="60" as="geometry" />
        </mxCell>
        <mxCell id="51Cz9Sj3qojeg60HBu6H-147" value="&lt;div style=&quot;&quot;&gt;&lt;span style=&quot;font-size: 20px; font-weight: 700; text-wrap: wrap;&quot;&gt;5&lt;/span&gt;&lt;br&gt;&lt;/div&gt;" style="strokeWidth=2;html=1;shape=mxgraph.lean_mapping.truck_shipment;fillColor=#360204;align=center;strokeColor=#545709;" parent="1" vertex="1">
          <mxGeometry x="530" y="250" width="60" height="60" as="geometry" />
        </mxCell>
        <mxCell id="51Cz9Sj3qojeg60HBu6H-168" value="" style="group;fillColor=none;" parent="1" vertex="1" connectable="0">
          <mxGeometry x="-110" y="280" width="60" height="60" as="geometry" />
        </mxCell>
        <mxCell id="51Cz9Sj3qojeg60HBu6H-169" value="&lt;span style=&quot;font-size: 20px; font-weight: 700;&quot;&gt;4&lt;/span&gt;" style="shape=switch;whiteSpace=wrap;html=1;fillColor=#545709;strokeColor=#360204;" parent="51Cz9Sj3qojeg60HBu6H-168" vertex="1">
          <mxGeometry x="10" y="10" width="40" height="40" as="geometry" />
        </mxCell>
        <mxCell id="51Cz9Sj3qojeg60HBu6H-170" value="" style="ellipse;whiteSpace=wrap;html=1;aspect=fixed;fillColor=#545709;strokeColor=#360204;" parent="51Cz9Sj3qojeg60HBu6H-168" vertex="1">
          <mxGeometry y="40" width="20" height="20" as="geometry" />
        </mxCell>
        <mxCell id="51Cz9Sj3qojeg60HBu6H-171" value="" style="ellipse;whiteSpace=wrap;html=1;aspect=fixed;fillColor=#545709;strokeColor=#360204;" parent="51Cz9Sj3qojeg60HBu6H-168" vertex="1">
          <mxGeometry width="20" height="20" as="geometry" />
        </mxCell>
        <mxCell id="51Cz9Sj3qojeg60HBu6H-172" value="" style="ellipse;whiteSpace=wrap;html=1;aspect=fixed;fillColor=#545709;strokeColor=#360204;" parent="51Cz9Sj3qojeg60HBu6H-168" vertex="1">
          <mxGeometry x="40" width="20" height="20" as="geometry" />
        </mxCell>
        <mxCell id="51Cz9Sj3qojeg60HBu6H-173" value="" style="ellipse;whiteSpace=wrap;html=1;aspect=fixed;fillColor=#545709;strokeColor=#360204;" parent="51Cz9Sj3qojeg60HBu6H-168" vertex="1">
          <mxGeometry x="40" y="40" width="20" height="20" as="geometry" />
        </mxCell>
        <mxCell id="51Cz9Sj3qojeg60HBu6H-175" value="" style="group;fillColor=none;" parent="1" vertex="1" connectable="0">
          <mxGeometry x="130" y="180" width="60" height="60" as="geometry" />
        </mxCell>
        <mxCell id="51Cz9Sj3qojeg60HBu6H-176" value="&lt;span style=&quot;font-size: 20px; font-weight: 700;&quot;&gt;5&lt;/span&gt;" style="shape=switch;whiteSpace=wrap;html=1;fillColor=#545709;strokeColor=#360204;" parent="51Cz9Sj3qojeg60HBu6H-175" vertex="1">
          <mxGeometry x="10" y="10" width="40" height="40" as="geometry" />
        </mxCell>
        <mxCell id="51Cz9Sj3qojeg60HBu6H-177" value="" style="ellipse;whiteSpace=wrap;html=1;aspect=fixed;fillColor=#545709;strokeColor=#360204;" parent="51Cz9Sj3qojeg60HBu6H-175" vertex="1">
          <mxGeometry y="40" width="20" height="20" as="geometry" />
        </mxCell>
        <mxCell id="51Cz9Sj3qojeg60HBu6H-178" value="" style="ellipse;whiteSpace=wrap;html=1;aspect=fixed;fillColor=#545709;strokeColor=#360204;" parent="51Cz9Sj3qojeg60HBu6H-175" vertex="1">
          <mxGeometry width="20" height="20" as="geometry" />
        </mxCell>
        <mxCell id="51Cz9Sj3qojeg60HBu6H-179" value="" style="ellipse;whiteSpace=wrap;html=1;aspect=fixed;fillColor=#545709;strokeColor=#360204;" parent="51Cz9Sj3qojeg60HBu6H-175" vertex="1">
          <mxGeometry x="40" width="20" height="20" as="geometry" />
        </mxCell>
        <mxCell id="51Cz9Sj3qojeg60HBu6H-180" value="" style="ellipse;whiteSpace=wrap;html=1;aspect=fixed;fillColor=#545709;strokeColor=#360204;" parent="51Cz9Sj3qojeg60HBu6H-175" vertex="1">
          <mxGeometry x="40" y="40" width="20" height="20" as="geometry" />
        </mxCell>
        <mxCell id="51Cz9Sj3qojeg60HBu6H-181" value="" style="group;fillColor=none;" parent="1" vertex="1" connectable="0">
          <mxGeometry x="90" y="370" width="60" height="60" as="geometry" />
        </mxCell>
        <mxCell id="51Cz9Sj3qojeg60HBu6H-182" value="&lt;span style=&quot;font-size: 20px; font-weight: 700;&quot;&gt;3&lt;/span&gt;" style="shape=switch;whiteSpace=wrap;html=1;fillColor=#545709;strokeColor=#360204;" parent="51Cz9Sj3qojeg60HBu6H-181" vertex="1">
          <mxGeometry x="10" y="10" width="40" height="40" as="geometry" />
        </mxCell>
        <mxCell id="51Cz9Sj3qojeg60HBu6H-183" value="" style="ellipse;whiteSpace=wrap;html=1;aspect=fixed;fillColor=#545709;strokeColor=#360204;" parent="51Cz9Sj3qojeg60HBu6H-181" vertex="1">
          <mxGeometry y="40" width="20" height="20" as="geometry" />
        </mxCell>
        <mxCell id="51Cz9Sj3qojeg60HBu6H-184" value="" style="ellipse;whiteSpace=wrap;html=1;aspect=fixed;fillColor=#545709;strokeColor=#360204;" parent="51Cz9Sj3qojeg60HBu6H-181" vertex="1">
          <mxGeometry width="20" height="20" as="geometry" />
        </mxCell>
        <mxCell id="51Cz9Sj3qojeg60HBu6H-185" value="" style="ellipse;whiteSpace=wrap;html=1;aspect=fixed;fillColor=#545709;strokeColor=#360204;" parent="51Cz9Sj3qojeg60HBu6H-181" vertex="1">
          <mxGeometry x="40" width="20" height="20" as="geometry" />
        </mxCell>
        <mxCell id="51Cz9Sj3qojeg60HBu6H-186" value="" style="ellipse;whiteSpace=wrap;html=1;aspect=fixed;fillColor=#545709;strokeColor=#360204;" parent="51Cz9Sj3qojeg60HBu6H-181" vertex="1">
          <mxGeometry x="40" y="40" width="20" height="20" as="geometry" />
        </mxCell>
        <mxCell id="51Cz9Sj3qojeg60HBu6H-187" value="" style="group;fillColor=none;" parent="1" vertex="1" connectable="0">
          <mxGeometry x="1250" y="690" width="60" height="60" as="geometry" />
        </mxCell>
        <mxCell id="51Cz9Sj3qojeg60HBu6H-188" value="&lt;span style=&quot;font-size: 20px; font-weight: 700;&quot;&gt;9&lt;/span&gt;" style="shape=switch;whiteSpace=wrap;html=1;fillColor=#545709;strokeColor=#360204;" parent="51Cz9Sj3qojeg60HBu6H-187" vertex="1">
          <mxGeometry x="10" y="10" width="40" height="40" as="geometry" />
        </mxCell>
        <mxCell id="51Cz9Sj3qojeg60HBu6H-189" value="" style="ellipse;whiteSpace=wrap;html=1;aspect=fixed;fillColor=#545709;strokeColor=#360204;" parent="51Cz9Sj3qojeg60HBu6H-187" vertex="1">
          <mxGeometry y="40" width="20" height="20" as="geometry" />
        </mxCell>
        <mxCell id="51Cz9Sj3qojeg60HBu6H-190" value="" style="ellipse;whiteSpace=wrap;html=1;aspect=fixed;fillColor=#545709;strokeColor=#360204;" parent="51Cz9Sj3qojeg60HBu6H-187" vertex="1">
          <mxGeometry width="20" height="20" as="geometry" />
        </mxCell>
        <mxCell id="51Cz9Sj3qojeg60HBu6H-191" value="" style="ellipse;whiteSpace=wrap;html=1;aspect=fixed;fillColor=#545709;strokeColor=#360204;" parent="51Cz9Sj3qojeg60HBu6H-187" vertex="1">
          <mxGeometry x="40" width="20" height="20" as="geometry" />
        </mxCell>
        <mxCell id="51Cz9Sj3qojeg60HBu6H-192" value="" style="ellipse;whiteSpace=wrap;html=1;aspect=fixed;fillColor=#545709;strokeColor=#360204;" parent="51Cz9Sj3qojeg60HBu6H-187" vertex="1">
          <mxGeometry x="40" y="40" width="20" height="20" as="geometry" />
        </mxCell>
        <mxCell id="51Cz9Sj3qojeg60HBu6H-194" value="" style="group;fillColor=none;" parent="1" vertex="1" connectable="0">
          <mxGeometry x="170" y="680" width="60" height="60" as="geometry" />
        </mxCell>
        <mxCell id="51Cz9Sj3qojeg60HBu6H-195" value="&lt;span style=&quot;font-size: 20px; font-weight: 700;&quot;&gt;0&lt;/span&gt;" style="shape=switch;whiteSpace=wrap;html=1;fillColor=#545709;strokeColor=#360204;" parent="51Cz9Sj3qojeg60HBu6H-194" vertex="1">
          <mxGeometry x="10" y="10" width="40" height="40" as="geometry" />
        </mxCell>
        <mxCell id="51Cz9Sj3qojeg60HBu6H-196" value="" style="ellipse;whiteSpace=wrap;html=1;aspect=fixed;fillColor=#545709;strokeColor=#360204;" parent="51Cz9Sj3qojeg60HBu6H-194" vertex="1">
          <mxGeometry y="40" width="20" height="20" as="geometry" />
        </mxCell>
        <mxCell id="51Cz9Sj3qojeg60HBu6H-197" value="" style="ellipse;whiteSpace=wrap;html=1;aspect=fixed;fillColor=#545709;strokeColor=#360204;" parent="51Cz9Sj3qojeg60HBu6H-194" vertex="1">
          <mxGeometry width="20" height="20" as="geometry" />
        </mxCell>
        <mxCell id="51Cz9Sj3qojeg60HBu6H-198" value="" style="ellipse;whiteSpace=wrap;html=1;aspect=fixed;fillColor=#545709;strokeColor=#360204;" parent="51Cz9Sj3qojeg60HBu6H-194" vertex="1">
          <mxGeometry x="40" width="20" height="20" as="geometry" />
        </mxCell>
        <mxCell id="51Cz9Sj3qojeg60HBu6H-199" value="" style="ellipse;whiteSpace=wrap;html=1;aspect=fixed;fillColor=#545709;strokeColor=#360204;" parent="51Cz9Sj3qojeg60HBu6H-194" vertex="1">
          <mxGeometry x="40" y="40" width="20" height="20" as="geometry" />
        </mxCell>
        <mxCell id="51Cz9Sj3qojeg60HBu6H-201" value="" style="group;fillColor=none;" parent="1" vertex="1" connectable="0">
          <mxGeometry x="280" y="680" width="60" height="60" as="geometry" />
        </mxCell>
        <mxCell id="51Cz9Sj3qojeg60HBu6H-202" value="&lt;span style=&quot;font-size: 20px; font-weight: 700;&quot;&gt;1&lt;/span&gt;" style="shape=switch;whiteSpace=wrap;html=1;fillColor=#545709;strokeColor=#360204;" parent="51Cz9Sj3qojeg60HBu6H-201" vertex="1">
          <mxGeometry x="10" y="10" width="40" height="40" as="geometry" />
        </mxCell>
        <mxCell id="51Cz9Sj3qojeg60HBu6H-203" value="" style="ellipse;whiteSpace=wrap;html=1;aspect=fixed;fillColor=#545709;strokeColor=#360204;" parent="51Cz9Sj3qojeg60HBu6H-201" vertex="1">
          <mxGeometry y="40" width="20" height="20" as="geometry" />
        </mxCell>
        <mxCell id="51Cz9Sj3qojeg60HBu6H-204" value="" style="ellipse;whiteSpace=wrap;html=1;aspect=fixed;fillColor=#545709;strokeColor=#360204;" parent="51Cz9Sj3qojeg60HBu6H-201" vertex="1">
          <mxGeometry width="20" height="20" as="geometry" />
        </mxCell>
        <mxCell id="51Cz9Sj3qojeg60HBu6H-205" value="" style="ellipse;whiteSpace=wrap;html=1;aspect=fixed;fillColor=#545709;strokeColor=#360204;" parent="51Cz9Sj3qojeg60HBu6H-201" vertex="1">
          <mxGeometry x="40" width="20" height="20" as="geometry" />
        </mxCell>
        <mxCell id="51Cz9Sj3qojeg60HBu6H-206" value="" style="ellipse;whiteSpace=wrap;html=1;aspect=fixed;fillColor=#545709;strokeColor=#360204;" parent="51Cz9Sj3qojeg60HBu6H-201" vertex="1">
          <mxGeometry x="40" y="40" width="20" height="20" as="geometry" />
        </mxCell>
        <mxCell id="51Cz9Sj3qojeg60HBu6H-208" value="" style="group;fillColor=none;" parent="1" vertex="1" connectable="0">
          <mxGeometry x="190" y="525" width="60" height="60" as="geometry" />
        </mxCell>
        <mxCell id="51Cz9Sj3qojeg60HBu6H-209" value="&lt;span style=&quot;font-size: 20px; font-weight: 700;&quot;&gt;2&lt;/span&gt;" style="shape=switch;whiteSpace=wrap;html=1;fillColor=#545709;strokeColor=#360204;" parent="51Cz9Sj3qojeg60HBu6H-208" vertex="1">
          <mxGeometry x="10" y="10" width="40" height="40" as="geometry" />
        </mxCell>
        <mxCell id="51Cz9Sj3qojeg60HBu6H-210" value="" style="ellipse;whiteSpace=wrap;html=1;aspect=fixed;fillColor=#545709;strokeColor=#360204;" parent="51Cz9Sj3qojeg60HBu6H-208" vertex="1">
          <mxGeometry y="40" width="20" height="20" as="geometry" />
        </mxCell>
        <mxCell id="51Cz9Sj3qojeg60HBu6H-211" value="" style="ellipse;whiteSpace=wrap;html=1;aspect=fixed;fillColor=#545709;strokeColor=#360204;" parent="51Cz9Sj3qojeg60HBu6H-208" vertex="1">
          <mxGeometry width="20" height="20" as="geometry" />
        </mxCell>
        <mxCell id="51Cz9Sj3qojeg60HBu6H-212" value="" style="ellipse;whiteSpace=wrap;html=1;aspect=fixed;fillColor=#545709;strokeColor=#360204;" parent="51Cz9Sj3qojeg60HBu6H-208" vertex="1">
          <mxGeometry x="40" width="20" height="20" as="geometry" />
        </mxCell>
        <mxCell id="51Cz9Sj3qojeg60HBu6H-213" value="" style="ellipse;whiteSpace=wrap;html=1;aspect=fixed;fillColor=#545709;strokeColor=#360204;" parent="51Cz9Sj3qojeg60HBu6H-208" vertex="1">
          <mxGeometry x="40" y="40" width="20" height="20" as="geometry" />
        </mxCell>
        <mxCell id="51Cz9Sj3qojeg60HBu6H-214" value="" style="group;fillColor=none;" parent="1" vertex="1" connectable="0">
          <mxGeometry x="767" y="100" width="60" height="60" as="geometry" />
        </mxCell>
        <mxCell id="51Cz9Sj3qojeg60HBu6H-215" value="&lt;span style=&quot;font-size: 20px; font-weight: 700;&quot;&gt;13&lt;/span&gt;" style="shape=switch;whiteSpace=wrap;html=1;fillColor=#545709;strokeColor=#360204;" parent="51Cz9Sj3qojeg60HBu6H-214" vertex="1">
          <mxGeometry x="10" y="10" width="40" height="40" as="geometry" />
        </mxCell>
        <mxCell id="51Cz9Sj3qojeg60HBu6H-216" value="" style="ellipse;whiteSpace=wrap;html=1;aspect=fixed;fillColor=#545709;strokeColor=#360204;" parent="51Cz9Sj3qojeg60HBu6H-214" vertex="1">
          <mxGeometry y="40" width="20" height="20" as="geometry" />
        </mxCell>
        <mxCell id="51Cz9Sj3qojeg60HBu6H-217" value="" style="ellipse;whiteSpace=wrap;html=1;aspect=fixed;fillColor=#545709;strokeColor=#360204;" parent="51Cz9Sj3qojeg60HBu6H-214" vertex="1">
          <mxGeometry width="20" height="20" as="geometry" />
        </mxCell>
        <mxCell id="51Cz9Sj3qojeg60HBu6H-218" value="" style="ellipse;whiteSpace=wrap;html=1;aspect=fixed;fillColor=#545709;strokeColor=#360204;" parent="51Cz9Sj3qojeg60HBu6H-214" vertex="1">
          <mxGeometry x="40" width="20" height="20" as="geometry" />
        </mxCell>
        <mxCell id="51Cz9Sj3qojeg60HBu6H-219" value="" style="ellipse;whiteSpace=wrap;html=1;aspect=fixed;fillColor=#545709;strokeColor=#360204;" parent="51Cz9Sj3qojeg60HBu6H-214" vertex="1">
          <mxGeometry x="40" y="40" width="20" height="20" as="geometry" />
        </mxCell>
        <mxCell id="51Cz9Sj3qojeg60HBu6H-221" value="" style="group;fillColor=none;" parent="1" vertex="1" connectable="0">
          <mxGeometry x="970" y="180" width="60" height="60" as="geometry" />
        </mxCell>
        <mxCell id="51Cz9Sj3qojeg60HBu6H-222" value="&lt;span style=&quot;font-size: 20px; font-weight: 700;&quot;&gt;11&lt;/span&gt;" style="shape=switch;whiteSpace=wrap;html=1;fillColor=#545709;strokeColor=#360204;" parent="51Cz9Sj3qojeg60HBu6H-221" vertex="1">
          <mxGeometry x="10" y="10" width="40" height="40" as="geometry" />
        </mxCell>
        <mxCell id="51Cz9Sj3qojeg60HBu6H-223" value="" style="ellipse;whiteSpace=wrap;html=1;aspect=fixed;fillColor=#545709;strokeColor=#360204;" parent="51Cz9Sj3qojeg60HBu6H-221" vertex="1">
          <mxGeometry y="40" width="20" height="20" as="geometry" />
        </mxCell>
        <mxCell id="51Cz9Sj3qojeg60HBu6H-224" value="" style="ellipse;whiteSpace=wrap;html=1;aspect=fixed;fillColor=#545709;strokeColor=#360204;" parent="51Cz9Sj3qojeg60HBu6H-221" vertex="1">
          <mxGeometry width="20" height="20" as="geometry" />
        </mxCell>
        <mxCell id="51Cz9Sj3qojeg60HBu6H-225" value="" style="ellipse;whiteSpace=wrap;html=1;aspect=fixed;fillColor=#545709;strokeColor=#360204;" parent="51Cz9Sj3qojeg60HBu6H-221" vertex="1">
          <mxGeometry x="40" width="20" height="20" as="geometry" />
        </mxCell>
        <mxCell id="51Cz9Sj3qojeg60HBu6H-226" value="" style="ellipse;whiteSpace=wrap;html=1;aspect=fixed;fillColor=#545709;strokeColor=#360204;" parent="51Cz9Sj3qojeg60HBu6H-221" vertex="1">
          <mxGeometry x="40" y="40" width="20" height="20" as="geometry" />
        </mxCell>
        <mxCell id="51Cz9Sj3qojeg60HBu6H-227" value="" style="group;fillColor=none;" parent="1" vertex="1" connectable="0">
          <mxGeometry x="1100" y="160" width="60" height="60" as="geometry" />
        </mxCell>
        <mxCell id="51Cz9Sj3qojeg60HBu6H-228" value="&lt;span style=&quot;font-size: 20px; font-weight: 700;&quot;&gt;12&lt;/span&gt;" style="shape=switch;whiteSpace=wrap;html=1;fillColor=#545709;strokeColor=#360204;" parent="51Cz9Sj3qojeg60HBu6H-227" vertex="1">
          <mxGeometry x="10" y="10" width="40" height="40" as="geometry" />
        </mxCell>
        <mxCell id="51Cz9Sj3qojeg60HBu6H-229" value="" style="ellipse;whiteSpace=wrap;html=1;aspect=fixed;fillColor=#545709;strokeColor=#360204;" parent="51Cz9Sj3qojeg60HBu6H-227" vertex="1">
          <mxGeometry y="40" width="20" height="20" as="geometry" />
        </mxCell>
        <mxCell id="51Cz9Sj3qojeg60HBu6H-230" value="" style="ellipse;whiteSpace=wrap;html=1;aspect=fixed;fillColor=#545709;strokeColor=#360204;" parent="51Cz9Sj3qojeg60HBu6H-227" vertex="1">
          <mxGeometry width="20" height="20" as="geometry" />
        </mxCell>
        <mxCell id="51Cz9Sj3qojeg60HBu6H-231" value="" style="ellipse;whiteSpace=wrap;html=1;aspect=fixed;fillColor=#545709;strokeColor=#360204;" parent="51Cz9Sj3qojeg60HBu6H-227" vertex="1">
          <mxGeometry x="40" width="20" height="20" as="geometry" />
        </mxCell>
        <mxCell id="51Cz9Sj3qojeg60HBu6H-232" value="" style="ellipse;whiteSpace=wrap;html=1;aspect=fixed;fillColor=#545709;strokeColor=#360204;" parent="51Cz9Sj3qojeg60HBu6H-227" vertex="1">
          <mxGeometry x="40" y="40" width="20" height="20" as="geometry" />
        </mxCell>
        <mxCell id="51Cz9Sj3qojeg60HBu6H-233" value="" style="group;fillColor=none;" parent="1" vertex="1" connectable="0">
          <mxGeometry x="1050" y="540" width="60" height="60" as="geometry" />
        </mxCell>
        <mxCell id="51Cz9Sj3qojeg60HBu6H-234" value="&lt;span style=&quot;font-size: 20px; font-weight: 700;&quot;&gt;10&lt;/span&gt;" style="shape=switch;whiteSpace=wrap;html=1;fillColor=#545709;strokeColor=#360204;" parent="51Cz9Sj3qojeg60HBu6H-233" vertex="1">
          <mxGeometry x="10" y="10" width="40" height="40" as="geometry" />
        </mxCell>
        <mxCell id="51Cz9Sj3qojeg60HBu6H-235" value="" style="ellipse;whiteSpace=wrap;html=1;aspect=fixed;fillColor=#545709;strokeColor=#360204;" parent="51Cz9Sj3qojeg60HBu6H-233" vertex="1">
          <mxGeometry y="40" width="20" height="20" as="geometry" />
        </mxCell>
        <mxCell id="51Cz9Sj3qojeg60HBu6H-236" value="" style="ellipse;whiteSpace=wrap;html=1;aspect=fixed;fillColor=#545709;strokeColor=#360204;" parent="51Cz9Sj3qojeg60HBu6H-233" vertex="1">
          <mxGeometry width="20" height="20" as="geometry" />
        </mxCell>
        <mxCell id="51Cz9Sj3qojeg60HBu6H-237" value="" style="ellipse;whiteSpace=wrap;html=1;aspect=fixed;fillColor=#545709;strokeColor=#360204;" parent="51Cz9Sj3qojeg60HBu6H-233" vertex="1">
          <mxGeometry x="40" width="20" height="20" as="geometry" />
        </mxCell>
        <mxCell id="51Cz9Sj3qojeg60HBu6H-238" value="" style="ellipse;whiteSpace=wrap;html=1;aspect=fixed;fillColor=#545709;strokeColor=#360204;" parent="51Cz9Sj3qojeg60HBu6H-233" vertex="1">
          <mxGeometry x="40" y="40" width="20" height="20" as="geometry" />
        </mxCell>
        <mxCell id="51Cz9Sj3qojeg60HBu6H-239" value="" style="group;fillColor=none;" parent="1" vertex="1" connectable="0">
          <mxGeometry x="950" y="750" width="60" height="60" as="geometry" />
        </mxCell>
        <mxCell id="51Cz9Sj3qojeg60HBu6H-240" value="&lt;span style=&quot;font-size: 20px; font-weight: 700;&quot;&gt;6&lt;/span&gt;" style="shape=switch;whiteSpace=wrap;html=1;fillColor=#545709;strokeColor=#360204;" parent="51Cz9Sj3qojeg60HBu6H-239" vertex="1">
          <mxGeometry x="10" y="10" width="40" height="40" as="geometry" />
        </mxCell>
        <mxCell id="51Cz9Sj3qojeg60HBu6H-241" value="" style="ellipse;whiteSpace=wrap;html=1;aspect=fixed;fillColor=#545709;strokeColor=#360204;" parent="51Cz9Sj3qojeg60HBu6H-239" vertex="1">
          <mxGeometry y="40" width="20" height="20" as="geometry" />
        </mxCell>
        <mxCell id="51Cz9Sj3qojeg60HBu6H-242" value="" style="ellipse;whiteSpace=wrap;html=1;aspect=fixed;fillColor=#545709;strokeColor=#360204;" parent="51Cz9Sj3qojeg60HBu6H-239" vertex="1">
          <mxGeometry width="20" height="20" as="geometry" />
        </mxCell>
        <mxCell id="51Cz9Sj3qojeg60HBu6H-243" value="" style="ellipse;whiteSpace=wrap;html=1;aspect=fixed;fillColor=#545709;strokeColor=#360204;" parent="51Cz9Sj3qojeg60HBu6H-239" vertex="1">
          <mxGeometry x="40" width="20" height="20" as="geometry" />
        </mxCell>
        <mxCell id="51Cz9Sj3qojeg60HBu6H-244" value="" style="ellipse;whiteSpace=wrap;html=1;aspect=fixed;fillColor=#545709;strokeColor=#360204;" parent="51Cz9Sj3qojeg60HBu6H-239" vertex="1">
          <mxGeometry x="40" y="40" width="20" height="20" as="geometry" />
        </mxCell>
        <mxCell id="51Cz9Sj3qojeg60HBu6H-245" value="" style="group;fillColor=none;" parent="1" vertex="1" connectable="0">
          <mxGeometry x="1050" y="740" width="60" height="60" as="geometry" />
        </mxCell>
        <mxCell id="51Cz9Sj3qojeg60HBu6H-246" value="&lt;span style=&quot;font-size: 20px; font-weight: 700;&quot;&gt;7&lt;/span&gt;" style="shape=switch;whiteSpace=wrap;html=1;fillColor=#545709;strokeColor=#360204;" parent="51Cz9Sj3qojeg60HBu6H-245" vertex="1">
          <mxGeometry x="10" y="10" width="40" height="40" as="geometry" />
        </mxCell>
        <mxCell id="51Cz9Sj3qojeg60HBu6H-247" value="" style="ellipse;whiteSpace=wrap;html=1;aspect=fixed;fillColor=#545709;strokeColor=#360204;" parent="51Cz9Sj3qojeg60HBu6H-245" vertex="1">
          <mxGeometry y="40" width="20" height="20" as="geometry" />
        </mxCell>
        <mxCell id="51Cz9Sj3qojeg60HBu6H-248" value="" style="ellipse;whiteSpace=wrap;html=1;aspect=fixed;fillColor=#545709;strokeColor=#360204;" parent="51Cz9Sj3qojeg60HBu6H-245" vertex="1">
          <mxGeometry width="20" height="20" as="geometry" />
        </mxCell>
        <mxCell id="51Cz9Sj3qojeg60HBu6H-249" value="" style="ellipse;whiteSpace=wrap;html=1;aspect=fixed;fillColor=#545709;strokeColor=#360204;" parent="51Cz9Sj3qojeg60HBu6H-245" vertex="1">
          <mxGeometry x="40" width="20" height="20" as="geometry" />
        </mxCell>
        <mxCell id="51Cz9Sj3qojeg60HBu6H-250" value="" style="ellipse;whiteSpace=wrap;html=1;aspect=fixed;fillColor=#545709;strokeColor=#360204;" parent="51Cz9Sj3qojeg60HBu6H-245" vertex="1">
          <mxGeometry x="40" y="40" width="20" height="20" as="geometry" />
        </mxCell>
        <mxCell id="51Cz9Sj3qojeg60HBu6H-253" value="" style="group;fillColor=none;" parent="1" vertex="1" connectable="0">
          <mxGeometry x="1040" y="660" width="60" height="60" as="geometry" />
        </mxCell>
        <mxCell id="51Cz9Sj3qojeg60HBu6H-254" value="&lt;span style=&quot;font-size: 20px; font-weight: 700;&quot;&gt;8&lt;/span&gt;" style="shape=switch;whiteSpace=wrap;html=1;fillColor=#545709;strokeColor=#360204;" parent="51Cz9Sj3qojeg60HBu6H-253" vertex="1">
          <mxGeometry x="10" y="10" width="40" height="40" as="geometry" />
        </mxCell>
        <mxCell id="51Cz9Sj3qojeg60HBu6H-255" value="" style="ellipse;whiteSpace=wrap;html=1;aspect=fixed;fillColor=#545709;strokeColor=#360204;" parent="51Cz9Sj3qojeg60HBu6H-253" vertex="1">
          <mxGeometry y="40" width="20" height="20" as="geometry" />
        </mxCell>
        <mxCell id="51Cz9Sj3qojeg60HBu6H-256" value="" style="ellipse;whiteSpace=wrap;html=1;aspect=fixed;fillColor=#545709;strokeColor=#360204;" parent="51Cz9Sj3qojeg60HBu6H-253" vertex="1">
          <mxGeometry width="20" height="20" as="geometry" />
        </mxCell>
        <mxCell id="51Cz9Sj3qojeg60HBu6H-257" value="" style="ellipse;whiteSpace=wrap;html=1;aspect=fixed;fillColor=#545709;strokeColor=#360204;" parent="51Cz9Sj3qojeg60HBu6H-253" vertex="1">
          <mxGeometry x="40" width="20" height="20" as="geometry" />
        </mxCell>
        <mxCell id="51Cz9Sj3qojeg60HBu6H-258" value="" style="ellipse;whiteSpace=wrap;html=1;aspect=fixed;fillColor=#545709;strokeColor=#360204;" parent="51Cz9Sj3qojeg60HBu6H-253" vertex="1">
          <mxGeometry x="40" y="40" width="20" height="20" as="geometry" />
        </mxCell>
        <mxCell id="51Cz9Sj3qojeg60HBu6H-259" value="" style="endArrow=none;html=1;rounded=0;strokeColor=#08612E;strokeWidth=6;entryX=0.5;entryY=1;entryDx=0;entryDy=0;exitX=0.5;exitY=0;exitDx=0;exitDy=0;" parent="1" source="51Cz9Sj3qojeg60HBu6H-12" target="51Cz9Sj3qojeg60HBu6H-13" edge="1">
          <mxGeometry width="50" height="50" relative="1" as="geometry">
            <mxPoint x="340" y="310" as="sourcePoint" />
            <mxPoint x="370" y="410" as="targetPoint" />
          </mxGeometry>
        </mxCell>
      </root>
    </mxGraphModel>
  </diagram>
</mxfile>
